<svg xmlns="http://www.w3.org/2000/svg" viewBox="0 0 63.63 28.57"><defs><style>.a{fill:#e8e3cc;}</style></defs><title>cloud3</title><path class="a" d="M61.86,23a4.28,4.28,0,0,0-1.9-.43H56.89c0-.27.08-.55.1-.82s0-.39,0-.6c0-5.23-4.51-9.47-10.07-9.47a10.77,10.77,0,0,0-2.59.31c-.2-1,0-12-13.9-12A13.27,13.27,0,0,0,17.2,12.64c-.27,0-.54,0-.81,0A9.34,9.34,0,0,0,6.8,21.28c0,.11,0,.23,0,.34a8.58,8.58,0,0,0,.06,1H3.67a4.6,4.6,0,0,0-.59,0,4.05,4.05,0,0,0-2,.84A2.75,2.75,0,0,0,0,25.58c0,1.64,1.65,3,3.67,3H60a4.11,4.11,0,0,0,2.59-.88,2.74,2.74,0,0,0,1.08-2.11A2.93,2.93,0,0,0,61.86,23Z"/></svg>