<svg xmlns="http://www.w3.org/2000/svg" xmlns:xlink="http://www.w3.org/1999/xlink" viewBox="0 0 158.19 166.18"><defs><style>.a{fill:url(#a);}.b{fill:url(#b);}.c{fill:#f7d9b5;}.d{fill:#efbc8b;}.e{fill:#332113;}.f{fill:#bfd8e3;}.g{fill:#c94331;}.h{fill:#eaeaea;}.i{fill:none;stroke:#d6925f;stroke-linecap:round;stroke-linejoin:round;stroke-width:1.78px;}.j{fill:url(#c);}.k{fill:url(#d);}</style><linearGradient id="a" x1="53.72" y1="102.46" x2="53.72" y2="67.35" gradientUnits="userSpaceOnUse"><stop offset="0.15" stop-color="#423a40"/><stop offset="1" stop-color="#665f72"/></linearGradient><linearGradient id="b" x1="662.24" y1="102.46" x2="662.24" y2="67.35" gradientTransform="matrix(-1, 0, 0, 1, 765.99, 0)" xlink:href="#a"/><linearGradient id="c" x1="109.81" y1="3.61" x2="109.81" y2="37.96" xlink:href="#a"/><linearGradient id="d" x1="71.4" y1="3.61" x2="71.4" y2="37.96" xlink:href="#a"/></defs><title>entrepreneur2</title><path class="a" d="M50.86,12.61C27.07,30.26,34.6,55.86,38.09,77.34c.88,5.45,2.18,10.89,2,16.4s-2.15,11.29-6.56,14.6A19.87,19.87,0,0,0,50,103.21l-.68,10.49,10.78-4.32,4.44,12.54c8-5.66,9.49-16.82,9.44-26.63a176.34,176.34,0,0,0-17.1-74.66"/><path class="b" d="M106.62,12.61c23.79,17.65,16.25,43.25,12.77,64.73-.88,5.45-2.18,10.89-2,16.4s2.15,11.29,6.56,14.6a19.87,19.87,0,0,1-16.44-5.14l.68,10.49-10.78-4.32L93,121.91c-8-5.66-9.49-16.82-9.44-26.63a176.34,176.34,0,0,1,17.1-74.66"/><path class="c" d="M144.7,140.18a32.13,32.13,0,0,0-10-4.63l-3.8-1,.08,0-30-9.74A5.88,5.88,0,0,1,96.85,120c-1.22-6.25-1.07-21.27-1-24a.4.4,0,0,0-.43-.37H62.8a.4.4,0,0,0-.43.37c0,2.65.15,17.38-1,24a5.83,5.83,0,0,1-4.18,4.83l-30,9.74.08,0-3.9,1a31,31,0,0,0-8.71,3.81C1,148.34.58,163,0,165.74a.39.39,0,0,0,.42.44H157.77a.39.39,0,0,0,.42-.44C157.63,163.09,157.43,149.19,144.7,140.18Z"/><path class="d" d="M96.2,114.31c-.14-7-.4-13.57-.38-15.35a.44.44,0,0,0-.43-.46H62.8a.44.44,0,0,0-.43.46c0,1.77-.26,8.38-.41,15.4,2.33,2.43,11,5.88,16.76,5.92C84.76,120.31,93.69,116.22,96.2,114.31Z"/><path class="c" d="M48.34,63.79c2.3,6.18,1,15.85-2.92,17.71s-8.94-4.77-11.23-11S33.2,57.84,37.11,56,46,57.61,48.34,63.79Z"/><path class="c" d="M109.85,63.79c-2.3,6.18-1,15.85,2.92,17.71s8.94-4.77,11.23-11,1-12.71-2.92-14.57S112.15,57.61,109.85,63.79Z"/><path class="c" d="M78.74,9C40,7.69,39.4,44.81,40,57a149.29,149.29,0,0,0,4.43,28.29c1.08,3.69,3,9.87,5.86,12.55,7.56,7.21,17,13.61,22.76,15.83a19.71,19.71,0,0,0,5.7.56,19.71,19.71,0,0,0,5.7-.56c5.81-2.22,15.2-8.61,22.76-15.83C110,95.2,112,89,113.06,85.33A149.29,149.29,0,0,0,117.49,57C118.07,44.81,117.5,7.69,78.74,9Z"/><path class="e" d="M59.5,55a5.14,5.14,0,1,1,0,10.27c-3,0-5.45-3.62-5.45-6.46S56.49,55,59.5,55Z"/><path class="e" d="M98.61,55c3,0,5.45,1,5.45,3.81s-2.44,6.46-5.45,6.46a5.14,5.14,0,1,1,0-10.27Z"/><path class="f" d="M144.7,140a32.13,32.13,0,0,0-10-4.63l-3.8-1,.08,0-26.93-8.75-3-1a5.42,5.42,0,0,1-1.94-1A54.59,54.59,0,0,1,79.82,127c2.77,0,4.15,0,6.92,1.38-10.09,1.12-22,3.15-28.36-4.22a5.59,5.59,0,0,1-1.22.5l-3,1L27.2,134.36l.08,0-3.9,1a31,31,0,0,0-8.71,3.81C1,148.18.58,162.85,0,165.58a.39.39,0,0,0,.42.44H157.77a.39.39,0,0,0,.42-.44C157.63,162.93,157.43,149,144.7,140Z"/><path class="g" d="M72.94,140.93l-6.15-13.42H91.41l-6.15,13.42A7.11,7.11,0,0,1,72.94,140.93Z"/><path class="g" d="M84.91,145.84l6.15,20.34H66.44l6.15-20.34A7.11,7.11,0,0,1,84.91,145.84Z"/><path class="h" d="M60.89,118.27l-6.16,4.23,13.21,19.79L80.18,127.2S61.79,122.49,60.89,118.27Z"/><path class="h" d="M97.33,118.27l6.16,4.23L90.28,142.29,78,127.2S96.42,122.49,97.33,118.27Z"/><path class="i" d="M68.76,88.42c1.72,2.45,5.54,4.15,10,4.15s8.26-1.7,10-4.15"/><path class="j" d="M113.65,73.45a57.78,57.78,0,0,0-10.12-36c-1.93-2.78-4.12-5.42-5.45-8.53s-1.66-6.89.14-9.75c9.31-14.82,21,3.59,22.94,12C124.55,45.53,122.06,61.23,113.65,73.45Z"/><path class="k" d="M98.63,3.85C92.41.27,84.61-.52,77.29.29A50.79,50.79,0,0,0,46.47,15.18a41.24,41.24,0,0,0-11.6,29.64q1.82-1.59,3.74-3.09a57.15,57.15,0,0,0,8,31.74c-.66-12.67,1.59-25.55,8.08-36C56.27,35,59,32.6,60.21,29.89c.77-.25-4.5,7.59-4.45,18.6,0-1.15,12.15-8.34,13.71-9.68a90.27,90.27,0,0,0,10-10A76.5,76.5,0,0,0,75.06,37c-.82,1.77-3.63,13.28-4.78,13.76,8.66-3.65,36.4-17.75,37.61-30.1C108.53,14.06,104.85,7.42,98.63,3.85Z"/></svg>