<svg xmlns="http://www.w3.org/2000/svg" xmlns:xlink="http://www.w3.org/1999/xlink" viewBox="0 0 158.19 172.14"><defs><style>.a{fill:#f9d5b4;}.b{fill:#312f93;}.c{fill:#f2b78b;}.d{fill:#332113;}.e{fill:url(#a);}.f{fill:url(#b);}.g{fill:#fff;}</style><linearGradient id="a" x1="69.91" y1="6.99" x2="74.84" y2="29.68" gradientUnits="userSpaceOnUse"><stop offset="0.37" stop-color="#fff3d4"/><stop offset="1" stop-color="#f7d060"/></linearGradient><linearGradient id="b" x1="79.36" y1="-5.95" x2="83.31" y2="42.38" xlink:href="#a"/></defs><title>entrepreneur1</title><path class="a" d="M144.7,146.15a32.13,32.13,0,0,0-10-4.63l-3.8-1,.08,0-30-9.74a5.88,5.88,0,0,1-4.18-4.83c-1.22-6.25-1.07-21.27-1-24a.4.4,0,0,0-.43-.37H62.8a.4.4,0,0,0-.43.37c0,2.65.15,17.38-1,24a5.83,5.83,0,0,1-4.18,4.83l-30,9.74.08,0-3.9,1a31,31,0,0,0-8.71,3.81C1,154.31.58,169,0,171.7a.39.39,0,0,0,.42.44H157.77a.39.39,0,0,0,.42-.44C157.63,169,157.43,155.15,144.7,146.15Z"/><path class="b" d="M144.7,146.15a32.13,32.13,0,0,0-10-4.63l-3.8-1,.08,0-25.77-8.38a74.11,74.11,0,0,1-52.26,0L27.2,140.48l.08,0-3.9,1a31,31,0,0,0-8.71,3.81C1,154.31.58,169,0,171.7a.39.39,0,0,0,.42.44H157.77a.39.39,0,0,0,.42-.44C157.63,169,157.43,155.15,144.7,146.15Z"/><path class="c" d="M96.2,120.27c-.14-7-.4-13.57-.38-15.35a.44.44,0,0,0-.43-.46H62.8a.44.44,0,0,0-.43.46c0,1.77-.26,8.38-.41,15.4,2.33,2.43,11,5.88,16.76,5.92C84.76,126.27,93.69,122.18,96.2,120.27Z"/><path class="a" d="M48.34,69.75c2.3,6.18,1,15.85-2.92,17.71s-8.94-4.77-11.23-11-1-12.71,2.92-14.57S46,63.57,48.34,69.75Z"/><path class="a" d="M109.85,69.75c-2.3,6.18-1,15.85,2.92,17.71s8.94-4.77,11.23-11,1-12.71-2.92-14.57S112.15,63.57,109.85,69.75Z"/><path class="a" d="M78.74,14.93C40,13.65,39.4,50.77,40,63a149.28,149.28,0,0,0,4.43,28.29c1.08,3.69,3,9.87,5.86,12.55,7.56,7.21,17,13.61,22.76,15.83a19.7,19.7,0,0,0,5.7.56,19.7,19.7,0,0,0,5.7-.56c5.81-2.22,15.2-8.61,22.76-15.83C110,101.16,112,95,113.06,91.29A149.29,149.29,0,0,0,117.49,63C118.07,50.77,117.5,13.65,78.74,14.93Z"/><ellipse class="d" cx="58.66" cy="66.13" rx="4.84" ry="5.5"/><ellipse class="d" cx="97.98" cy="66.13" rx="4.84" ry="5.5"/><path class="e" d="M115.6,31.07a5,5,0,0,0-.68-1.89C108.85,19.4,96,12.25,79.18,12.9c-16.77-.65-29.66,6.5-35.74,16.28a5,5,0,0,0-.68,1.89c-4.36,8.35-2.67,18-2.79,25.05a49.79,49.79,0,0,0,2.48,13.24c1.16-6.29.75-12.75,2.19-19.09A76.48,76.48,0,0,1,49.1,36.7c8.2,3.26,18.65,5.24,30.08,5.24s21.89-2,30.08-5.24a76.48,76.48,0,0,1,4.45,13.57c1.44,6.34,1,12.8,2.19,19.09a49.78,49.78,0,0,0,2.48-13.24C118.27,49.12,120,39.43,115.6,31.07Z"/><path class="f" d="M61.73,40.32c-9-3.54,1.45-18.37,3.15-20C72,13.55,84.19,11.9,86.16,0a33,33,0,0,1,20,22.27c1.11,4.32-2.89,14.78-6.51,17.4C99.7,39.66,78.47,46.87,61.73,40.32Z"/><path class="g" d="M69.1,94.78a11,11,0,0,0,20,0Z"/></svg>