<svg xmlns="http://www.w3.org/2000/svg" xmlns:xlink="http://www.w3.org/1999/xlink" viewBox="0 0 158.19 178.22"><defs><style>.a{fill:#c68458;}.b{fill:#e0d94d;}.c{fill:#a56a42;}.d{fill:#3a1e0b;}.e{fill:#332113;}.f{fill:#fff;}.g{fill:url(#a);}.h{fill:#8ecdc7;}</style><linearGradient id="a" x1="79.1" y1="41.09" x2="79.1" y2="-0.7" gradientUnits="userSpaceOnUse"><stop offset="0" stop-color="#3a1e0b"/><stop offset="0.71" stop-color="#904f22"/><stop offset="1" stop-color="#a7732e"/></linearGradient></defs><title>entrepreneur3</title><path class="a" d="M144.7,152.22a32.13,32.13,0,0,0-10-4.63l-3.8-1,.08,0-30-9.74A5.88,5.88,0,0,1,96.85,132c-1.22-6.25-1.07-21.27-1-24a.4.4,0,0,0-.43-.37H62.8a.4.4,0,0,0-.43.37c0,2.65.15,17.38-1,24a5.83,5.83,0,0,1-4.18,4.83l-30,9.74.08,0-3.9,1a31,31,0,0,0-8.71,3.81C1,160.39.58,175,0,177.78a.39.39,0,0,0,.42.44H157.77a.39.39,0,0,0,.42-.44C157.63,175.13,157.43,161.23,144.7,152.22Z"/><path class="b" d="M144.7,152.22a32.13,32.13,0,0,0-10-4.63l-3.8-1,.08,0-25.77-8.38a74.11,74.11,0,0,1-52.26,0L27.2,146.56l.08,0-3.9,1a31,31,0,0,0-8.71,3.81C1,160.39.58,175,0,177.78a.39.39,0,0,0,.42.44H157.77a.39.39,0,0,0,.42-.44C157.63,175.13,157.43,161.23,144.7,152.22Z"/><path class="c" d="M96.2,126.35c-.14-7-.4-13.57-.38-15.35a.44.44,0,0,0-.43-.46H62.8a.44.44,0,0,0-.43.46c0,1.77-.26,8.38-.41,15.4,2.33,2.43,11,5.88,16.76,5.92C84.76,132.35,93.69,128.26,96.2,126.35Z"/><path class="a" d="M48.34,75.83c2.3,6.18,1,15.85-2.92,17.71s-8.94-4.77-11.23-11S33.2,69.88,37.11,68,46,69.65,48.34,75.83Z"/><path class="a" d="M109.85,75.83c-2.3,6.18-1,15.85,2.92,17.71s8.94-4.77,11.23-11,1-12.71-2.92-14.57S112.15,69.65,109.85,75.83Z"/><path class="a" d="M78.74,21C40,19.73,39.4,56.85,40,69.08a149.29,149.29,0,0,0,4.43,28.29c1.08,3.69,3,9.87,5.86,12.55,7.56,7.21,17,13.61,22.76,15.83a19.7,19.7,0,0,0,5.7.56,19.7,19.7,0,0,0,5.7-.56c5.81-2.22,15.2-8.61,22.76-15.83,2.81-2.68,4.78-8.86,5.86-12.55a149.29,149.29,0,0,0,4.43-28.29C118.07,56.85,117.5,19.73,78.74,21Z"/><path class="d" d="M86.46,116.87c-3.76-.68-6.83-4.67-7.36-7-.54,2.33-3.6,6.32-7.36,7-9.32,1.69-18.59-6.31-25.38-14.65,1.09,3,2.52,6,4.28,7.7,7.56,7.21,17,13.61,22.76,15.83a19.7,19.7,0,0,0,5.7.56,19.7,19.7,0,0,0,5.7-.56c5.81-2.22,15.2-8.61,22.76-15.83,1.77-1.68,3.2-4.74,4.28-7.7C105,110.56,95.78,118.56,86.46,116.87Z"/><ellipse class="e" cx="58.66" cy="72.21" rx="4.84" ry="5.5"/><ellipse class="e" cx="97.98" cy="72.21" rx="4.84" ry="5.5"/><path class="f" d="M66.71,98.59c2.14,5.3,6.87,9,12.38,9s10.25-3.7,12.38-9Z"/><path class="d" d="M44.56,57.51a75.82,75.82,0,0,1,8-20.71,4.91,4.91,0,0,0-5.3-1.62c-5.91,9-7.25,20.28-7.39,28.19A49.78,49.78,0,0,0,42.37,76.6C43.52,70.31,43.12,63.85,44.56,57.51Z"/><path class="d" d="M113.63,57.51a75.82,75.82,0,0,0-8-20.71,4.91,4.91,0,0,1,5.3-1.62c5.91,9,7.25,20.28,7.39,28.19a49.79,49.79,0,0,1-2.48,13.24C114.67,70.31,115.08,63.85,113.63,57.51Z"/><path class="g" d="M115.52,36.93a5,5,0,0,0-.68-1.89,30.14,30.14,0,0,0-5.58-6.56,14.06,14.06,0,0,0-2-6.63A54.06,54.06,0,0,0,84,0c-.07,5.28-4.22,9.67-8.77,12.34s-9.73,4.2-14.16,7.06a24.33,24.33,0,0,0-4.8,4.07A32.67,32.67,0,0,0,43.36,35a5,5,0,0,0-.68,1.89C38.32,45.28,39,55,38.89,62c.29,4.62,2.05,17.46,3.48,21.54,1.16-6.29.75-21.06,2.19-27.4A76.48,76.48,0,0,1,49,42.56c9.65-10.1,49.75-9.64,60.17,0a76.49,76.49,0,0,1,4.45,13.57c1.44,6.34,1,21.11,2.19,27.4C117.26,79.44,119,66.6,119.31,62,119.18,55,119.88,45.28,115.52,36.93Z"/><path class="h" d="M74.63,65.23c-7.09-8.64-33.8-2.51-33.83-2.52.49,2,.92,3.88,1.3,5.78,2,.21,2.1,4.66,2.3,6.29,1,7.88,6.23,13.68,17.32,13.4,11.12-.58,13.72-8.62,14.17-13.69A19.53,19.53,0,0,0,74.63,65.23ZM73.36,74.9c-.57,7.06-4.9,11.19-11.91,11.53-.71,0-1.4,0-2.06,0-11,0-12.93-9.68-13.15-15.79a6.52,6.52,0,0,1,5.88-6.84c2-.2,4.31-.2,6.94-.2,8.25,0,11.84,2,12.8,3.55A14,14,0,0,1,73.36,74.9Z"/><path class="h" d="M82.45,74.5c.46,5.07,3.06,13.11,14.17,13.69,11.09.27,16.36-5.53,17.32-13.4.2-1.63.31-6.09,2.3-6.29.39-1.9.81-3.83,1.3-5.78,0,0-26.74-6.12-33.83,2.52A19.53,19.53,0,0,0,82.45,74.5Zm4-7.34c1-1.58,4.55-3.55,12.79-3.55,2.64,0,4.92,0,6.94.2a6.52,6.52,0,0,1,5.88,6.84c-.22,6.11-2.11,15.77-13.15,15.79-.66,0-1.35,0-2.06,0C89.89,86.09,85.55,82,85,74.9A14,14,0,0,1,86.48,67.16Z"/><path class="h" d="M84,72a8.47,8.47,0,0,0-5-1.43A7.33,7.33,0,0,0,74.38,72l-1.45-4H85.42Z"/></svg>