<svg xmlns="http://www.w3.org/2000/svg" viewBox="0 0 118.32 108.01"><defs><style>.a{fill:#673ab7;}</style></defs><title>genetic2</title><path class="a" d="M73.67,27a13.58,13.58,0,1,0-10.38-3,2.79,2.79,0,0,1,.82,3.25l-3.47,8.15a2.78,2.78,0,0,0,1.54,3.67q.7.28,1.37.61a2.79,2.79,0,0,0,3.84-1.37l4-9.65A2.8,2.8,0,0,1,73.66,27ZM66.08,12.47a3.36,3.36,0,1,1,3.09-3.62A3.36,3.36,0,0,1,66.08,12.47Z"/><path class="a" d="M70,72,76,76.18a6.48,6.48,0,0,1,2.59,6.89,19.94,19.94,0,0,0-.44,7.22,20.14,20.14,0,1,0,18.4-22.5,20,20,0,0,0-8.92,2.91,6.41,6.41,0,0,1-7-.24L74.23,66a2.77,2.77,0,0,0-3.86.7q-.44.63-.93,1.22A2.76,2.76,0,0,0,70,72Zm18.61,3a5.86,5.86,0,1,1-5.38,6.31A5.86,5.86,0,0,1,88.57,75Z"/><path class="a" d="M0,70.69a13.56,13.56,0,0,0,26.71,3.22A6.47,6.47,0,0,1,31,69.33l5.29-1.74a2.76,2.76,0,0,0,1.69-3.71q-.32-.73-.58-1.49a2.77,2.77,0,0,0-3.49-1.74l-4.59,1.51a6.45,6.45,0,0,1-6.43-1.42A13.55,13.55,0,0,0,0,70.69Zm7-8.46a3.36,3.36,0,1,1-3.09,3.62A3.36,3.36,0,0,1,7,62.23Z"/><path class="a" d="M37.77,56.2A17.35,17.35,0,1,0,55.11,38.85,17.35,17.35,0,0,0,37.77,56.2ZM48.73,45a3.36,3.36,0,1,1-3.09,3.62A3.36,3.36,0,0,1,48.73,45Z"/><path class="a" d="M78.53,56.9A2,2,0,0,1,78,53.07l20.33-6.23a2,2,0,1,1,1.15,3.74L79.11,56.81A2,2,0,0,1,78.53,56.9Z"/><path class="a" d="M38.83,43a2,2,0,0,1-1.24-.44L21.13,29a2,2,0,0,1,2.48-3L40.07,39.49A2,2,0,0,1,38.83,43Z"/><path class="a" d="M44.73,101.07a2,2,0,0,1-1.88-2.52l6.07-20.38a2,2,0,1,1,3.75,1.12L46.61,99.67A2,2,0,0,1,44.73,101.07Z"/></svg>