<svg xmlns="http://www.w3.org/2000/svg" viewBox="0 0 270.62 172.02"><defs><style>.a{fill:#00749b;}.b{fill:#0089af;}</style></defs><title>ibcommunity-families</title><path class="a" d="M270.62,86.56V78.14a3,3,0,0,0-1.76-2.47L139.57,1a9.4,9.4,0,0,0-8.51,0L1.76,75.67A3,3,0,0,0,0,78.14v8.7a.41.41,0,0,0,0,0,.25.25,0,0,0,0,0v.2s0,0,0,0v.62a.39.39,0,0,0,0,0,.26.26,0,0,0,0,0v1a.39.39,0,0,0,0,0,.26.26,0,0,0,0,0v.71a.38.38,0,0,0,0,0,.3.3,0,0,0,0,0v.08a.41.41,0,0,0,0,0,.27.27,0,0,0,0,0v.87a.38.38,0,0,0,0,0,.28.28,0,0,0,0,0v3a3,3,0,0,0,1.76,2.48L131.06,171a9.39,9.39,0,0,0,8.51,0L268.86,96.36a3,3,0,0,0,1.76-2.48v-.31a.44.44,0,0,0,0,0v0a.37.37,0,0,0,0,0v-.91a.36.36,0,0,0,0,0,.25.25,0,0,0,0,0V89.55a.34.34,0,0,0,0,0,.21.21,0,0,0,0,0v-.4a.36.36,0,0,0,0,0,.2.2,0,0,0,0,0v-.4a.36.36,0,0,0,0,0,.21.21,0,0,0,0,0v-.72a.35.35,0,0,0,0,0,.19.19,0,0,0,0,0v-.4a.29.29,0,0,0,0,0,.24.24,0,0,0,0,0v-.71Z"/><path class="b" d="M139.57,155.23a9.38,9.38,0,0,1-8.51,0L1.76,80.58c-2.35-1.36-2.35-3.56,0-4.91L131.06,1a9.4,9.4,0,0,1,8.51,0L268.86,75.67c2.35,1.36,2.35,3.56,0,4.91Z"/></svg>