<svg xmlns="http://www.w3.org/2000/svg" viewBox="0 0 30.74 38.95"><defs><style>.a{fill:#d43e2a;}.b{fill:#ff5a41;}</style></defs><title>marker</title><path class="a" d="M10.35,34.75l.11.07.08.06,0,0,.13.08.08.05.12.08,0,0,0,0,.05,0,0,0,.13.09,0,0,0,0,.13.08h0l.13.09h0l.12.08.07,0,0,0,.12.08h0l.13.09.08.05,0,0,.13.08.08.05,0,0,0,0,.14.09.08.05,0,0,.13.08h0l.12.08,0,0,.12.08.12.08h0l.13.09.08.05h0l.13.08.08.05,0,0,0,0,.08.05.12.08h0l0,0,.13.09.11.07.05,0,.13.09.15.1,0,0,.13.09h0l.1.07,0,0h0l0,0,.12.08.12.08.07,0,.12.08h0l.12.08,0,0,.09.06.12.08.11.07.06,0,0,0h0l.13.09.06,0h0l.12.08,0,0h0l.4.26s13.33-18.52,13.94-26c.31-3.75-.8-6.49-2.83-7.89H21.8c-2-1.4-5-1.47-8.37.14C6.64,4.41.64,13.08,0,20.57-.51,27.13,8.08,33.24,10.2,34.64l.13.09Zm2-14.06a13.24,13.24,0,0,1,6.1-9A13.23,13.23,0,0,1,12.35,20.68Z"/><path class="b" d="M19.51,5.21C12.72,8.42,6.72,17.09,6.1,24.58S16.74,39,16.74,39s13.33-18.52,13.94-26S26.29,2,19.51,5.21ZM17.89,25c-3.39,1.61-5.89-.13-5.59-3.87A13,13,0,0,1,19,11.43c3.39-1.6,5.89.13,5.59,3.87A13,13,0,0,1,17.89,25Z"/></svg>