<svg xmlns="http://www.w3.org/2000/svg" xmlns:xlink="http://www.w3.org/1999/xlink" viewBox="0 0 57.97 68.45"><defs><style>.a{fill:url(#a);}.b{fill:url(#b);}.c{fill:#f9dac5;}.d{fill:#91b64d;}.e{fill:#f2bc9e;}.f{fill:none;stroke:#d6925f;stroke-linecap:round;stroke-linejoin:round;stroke-width:1.38px;}.g{fill:#332113;}.h{fill:#f7c9aa;}.i{fill:url(#c);}.j{fill:url(#d);}.k{fill:url(#e);}.l{fill:url(#f);}</style><radialGradient id="a" cx="37.85" cy="24.33" r="19.31" gradientUnits="userSpaceOnUse"><stop offset="0.75" stop-color="#3a1e0b"/><stop offset="1" stop-color="#904f22"/></radialGradient><radialGradient id="b" cx="20.49" cy="24.33" r="19.31" xlink:href="#a"/><linearGradient id="c" x1="28.99" y1="-7.88" x2="28.99" y2="25.75" xlink:href="#a"/><linearGradient id="d" x1="34.77" y1="46.39" x2="46.08" y2="46.39" gradientUnits="userSpaceOnUse"><stop offset="0" stop-color="#904f22"/><stop offset="0.44" stop-color="#3a1e0b"/></linearGradient><linearGradient id="e" x1="37.59" y1="-1498.01" x2="46.43" y2="-1498.01" gradientTransform="translate(83.45 -1446.1) rotate(180)" gradientUnits="userSpaceOnUse"><stop offset="0.56" stop-color="#3a1e0b"/><stop offset="1" stop-color="#904f22"/></linearGradient><linearGradient id="f" x1="35.07" y1="61.61" x2="44.36" y2="61.61" xlink:href="#d"/></defs><title>people7</title><path class="a" d="M25.39,1a16.87,16.87,0,0,1,15.8,2.55,22.9,22.9,0,0,1,7.38,10.22,28.84,28.84,0,0,1-2.15,24.37c-4.26,7-11.78,11.08-19.14,10.47C34.12,33.12,33.78,15.37,25.39,1Z"/><path class="b" d="M32.95,1a16.87,16.87,0,0,0-15.8,2.55A22.9,22.9,0,0,0,9.77,13.74a28.84,28.84,0,0,0,2.15,24.37c4.26,7,11.78,11.08,19.14,10.47C24.21,33.12,24.56,15.37,32.95,1Z"/><path class="c" d="M52.94,57.53a11.43,11.43,0,0,0-3.73-1.94L36.64,51.67h0a2.4,2.4,0,0,1-1.56-2A91.25,91.25,0,0,1,34.69,39a.16.16,0,0,0-.16-.16H23.44a.16.16,0,0,0-.16.16,94.89,94.89,0,0,1-.39,10.66,2.38,2.38,0,0,1-1.56,2h0L8.73,55.6a11,11,0,0,0-3.25,1.6C.36,61,.21,67.11,0,68.26a.16.16,0,0,0,.16.19H57.82a.16.16,0,0,0,.16-.19C57.77,67.15,57.69,61.31,52.94,57.53Z"/><path class="c" d="M52.94,57.53a11.43,11.43,0,0,0-3.73-1.94L36.64,51.67h0a2.4,2.4,0,0,1-1.56-2A91.25,91.25,0,0,1,34.69,39a.16.16,0,0,0-.16-.16H23.44a.16.16,0,0,0-.16.16,94.89,94.89,0,0,1-.39,10.66,2.38,2.38,0,0,1-1.56,2h0L8.73,55.6a11,11,0,0,0-3.25,1.6C.36,61,.21,67.11,0,68.26a.16.16,0,0,0,.16.19H57.82a.16.16,0,0,0,.16-.19C57.77,67.15,57.69,61.31,52.94,57.53Z"/><path class="c" d="M52.94,57.53a11.44,11.44,0,0,0-3.73-1.94l-1.39-.43L36.64,51.67a2.4,2.4,0,0,1-1.56-2A91.24,91.24,0,0,1,34.69,39a.16.16,0,0,0-.16-.16H23.44a.16.16,0,0,0-.16.16,94.88,94.88,0,0,1-.39,10.66,2.38,2.38,0,0,1-1.56,2L10.15,55.15l-1.43.44a11,11,0,0,0-3.25,1.6C.36,61,.21,67.11,0,68.26a.16.16,0,0,0,.16.19H57.82a.16.16,0,0,0,.16-.19C57.77,67.15,57.69,61.31,52.94,57.53Z"/><path class="d" d="M46.67,54.62c-.42,1.83-2.05,5.73-8.31,7.53l-.2.06a30.3,30.3,0,0,1-17.27,0l-.14,0c-6.28-1.81-7.9-5.73-8.32-7.55l-1.76.55V68.45H48.44V55.17Z"/><path class="e" d="M34.72,44.78c-.05-2.36,0-4.6,0-5.2a.16.16,0,0,0-.16-.16H23.44a.16.16,0,0,0-.16.16c0,.6,0,2.83,0,5.2A17.75,17.75,0,0,0,34.72,44.78Z"/><path class="c" d="M15.62,24.63c1,2.37.43,6.07-1.27,6.79s-3.89-1.83-4.88-4.2S9,22.35,10.73,21.64,14.62,22.26,15.62,24.63Z"/><path class="c" d="M42.36,24.63c-1,2.37-.43,6.07,1.27,6.79s3.89-1.83,4.88-4.2.43-4.87-1.27-5.59S43.36,22.26,42.36,24.63Z"/><path class="c" d="M29,1.66C12,1,11.73,17.22,12,22.56c.18,3.87,1.71,9.5,2.53,12.3a9.58,9.58,0,0,0,2.55,4.25C21.5,43.35,29,44.79,29,44.79s7.49-1.44,11.93-5.68a9.58,9.58,0,0,0,2.55-4.25c.82-2.8,2.34-8.43,2.53-12.3C46.24,17.22,46,1,29,1.66Z"/><path class="f" d="M25.61,35.58A4.16,4.16,0,0,0,29,37a4.16,4.16,0,0,0,3.38-1.4"/><ellipse class="g" cx="20.1" cy="23.49" rx="2.21" ry="2.61"/><ellipse class="g" cx="37.2" cy="23.49" rx="2.21" ry="2.61"/><circle class="h" cx="17.64" cy="29.75" r="2.46"/><circle class="h" cx="39.41" cy="29.75" r="2.46"/><polygon class="g" points="37.72 23.11 40.38 22.35 39.35 23.75 37.72 23.11"/><polygon class="g" points="19.58 23.11 16.92 22.35 17.95 23.75 19.58 23.11"/><path class="i" d="M29,.3C23-1.75,5.77,6.8,10.48,20.85c.17,0,2,8.27,5.09,11.06A8.8,8.8,0,0,1,14,24.79a21.6,21.6,0,0,1,1.76-5.29C22.16,16.25,27,8.13,29,6.32,30.9,8,36.32,15.44,42,19a23.14,23.14,0,0,1,2,5.82,8.8,8.8,0,0,1-1.59,7.12c3-2.79,4.92-11.06,5.09-11.06C52.21,6.8,35-1.75,29,.3Z"/><path class="j" d="M41.48,49.07c1.2-1.55,3.12-2.51,4.05-4.23a4.67,4.67,0,0,0,.22-3.94,4.49,4.49,0,0,0-.49-.89,8,8,0,0,0-9.12,12.13,2.41,2.41,0,0,0,4.31-.9A5.86,5.86,0,0,1,41.48,49.07Z"/><path class="k" d="M40.62,49.82c-.94,1.21-2.44,2-3.17,3.31a3.65,3.65,0,0,0-.17,3.08,3.51,3.51,0,0,0,.38.7,6.28,6.28,0,0,0,7.13-9.48,1.88,1.88,0,0,0-3.37.71A4.58,4.58,0,0,1,40.62,49.82Z"/><path class="l" d="M38.07,56.64a3.75,3.75,0,0,0-1.58,2.92,28.3,28.3,0,0,0,.42,3,5.09,5.09,0,0,1-1.84,4.27,6.83,6.83,0,0,0,9.29-6.49,5.06,5.06,0,0,0-.79-2.74A4.09,4.09,0,0,0,38.07,56.64Z"/></svg>