<svg xmlns="http://www.w3.org/2000/svg" xmlns:xlink="http://www.w3.org/1999/xlink" viewBox="0 0 57.97 74.06"><defs><style>.a{fill:url(#a);}.b{fill:url(#b);}.c{fill:url(#c);}.d{fill:url(#d);}.e{fill:#f9dac5;}.f{fill:#332113;}.g{fill:#fff;stroke:#bc2424;stroke-miterlimit:10;stroke-width:1.71px;}.h{fill:#d6725f;}.i{fill:#0cf;}.j{fill:#fff68c;}.k{fill:url(#e);}.l{fill:url(#f);}.m{fill:url(#g);}.n{fill:url(#h);}.o{fill:url(#i);}.p{fill:url(#j);}.q{fill:url(#k);}.r{fill:url(#l);}</style><linearGradient id="a" x1="44.31" y1="45.27" x2="21.57" y2="5.89" gradientUnits="userSpaceOnUse"><stop offset="0.37" stop-color="#c69c6d"/><stop offset="1" stop-color="#8d674f"/></linearGradient><linearGradient id="b" x1="36.87" y1="47.94" x2="13.82" y2="8.01" xlink:href="#a"/><linearGradient id="c" x1="28.7" y1="-5" x2="28.7" y2="28.64" gradientUnits="userSpaceOnUse"><stop offset="0.75" stop-color="#3a1e0b"/><stop offset="1" stop-color="#904f22"/></linearGradient><linearGradient id="d" x1="40.45" y1="41.11" x2="18.25" y2="2.68" xlink:href="#a"/><linearGradient id="e" x1="42.97" y1="56.39" x2="37.61" y2="47.11" xlink:href="#a"/><linearGradient id="f" x1="-44.26" y1="-1694.16" x2="-40.07" y2="-1686.91" gradientTransform="translate(-1.13 -1632.33) rotate(180)" xlink:href="#a"/><linearGradient id="g" x1="41.24" y1="71.89" x2="36.31" y2="63.35" xlink:href="#a"/><linearGradient id="h" x1="32.92" y1="17.36" x2="26" y2="5.38" xlink:href="#a"/><linearGradient id="i" x1="23.89" y1="24.6" x2="14.3" y2="8" xlink:href="#a"/><linearGradient id="j" x1="50.02" y1="28.58" x2="37.72" y2="7.27" xlink:href="#a"/><linearGradient id="k" x1="25.94" y1="17.21" x2="20.07" y2="7.04" xlink:href="#a"/><linearGradient id="l" x1="39.69" y1="15.88" x2="32.85" y2="4.05" xlink:href="#a"/></defs><title>people12</title><path class="a" d="M25.1,3.85A16.87,16.87,0,0,1,40.9,6.41a22.9,22.9,0,0,1,7.38,10.22A28.84,28.84,0,0,1,46.12,41C41.86,48,34.34,52.07,27,51.46,33.83,36,33.49,18.25,25.1,3.85Z"/><path class="b" d="M32.65,3.85a16.87,16.87,0,0,0-15.8,2.55A22.9,22.9,0,0,0,9.48,16.62,28.84,28.84,0,0,0,11.64,41c4.26,7,11.78,11.08,19.14,10.47C23.92,36,24.27,18.25,32.65,3.85Z"/><path class="c" d="M28.7,3.19c-6-2.05-23.22,6.49-18.5,20.55.17,0,2,8.27,5.09,11.06a8.8,8.8,0,0,1-1.59-7.12,21.6,21.6,0,0,1,1.76-5.29C21.87,19.14,26.68,11,28.7,9.2c1.92,1.72,7.33,9.13,13,12.65a23.14,23.14,0,0,1,2,5.82,8.8,8.8,0,0,1-1.59,7.12C45.16,32,47,23.73,47.2,23.73,51.92,9.68,34.73,1.14,28.7,3.19Z"/><path class="d" d="M50.09,19.59a22,22,0,0,0-4-11.64C42.4,2.93,35.66,0,29.06,0S15.73,2.93,12,7.94A22,22,0,0,0,8,19.59a18,18,0,0,0,0,5.14c2,10.62,8.48,18.52,19.44,19.76a12.25,12.25,0,0,0,3.17,0c11-1.24,16.72-8.26,19.44-19.76A15.14,15.14,0,0,0,50.09,19.59Z"/><path class="e" d="M15.33,27.52c1,2.37.43,6.07-1.27,6.79s-3.89-1.83-4.88-4.2-.43-4.87,1.27-5.59S14.33,25.15,15.33,27.52Z"/><path class="e" d="M42.07,27.52c-1,2.37-.43,6.07,1.27,6.79s3.89-1.83,4.88-4.2.43-4.87-1.27-5.59S43.07,25.15,42.07,27.52Z"/><path class="e" d="M52.94,63.14a11.43,11.43,0,0,0-3.73-1.94L36.64,57.28h0a2.4,2.4,0,0,1-1.56-2,91.25,91.25,0,0,1-.39-10.66.16.16,0,0,0-.16-.16H23.44a.16.16,0,0,0-.16.16,94.87,94.87,0,0,1-.39,10.66,2.38,2.38,0,0,1-1.56,2h0L8.73,61.21a11,11,0,0,0-3.25,1.6C.36,66.57.21,72.73,0,73.87a.16.16,0,0,0,.16.19H57.82a.16.16,0,0,0,.16-.19C57.77,72.76,57.69,66.93,52.94,63.14Z"/><path class="e" d="M29,6.84C12,6.18,11.73,22.4,12,27.74c.18,3.87,1.71,9.5,2.53,12.3a9.58,9.58,0,0,0,2.55,4.25C21.5,48.53,29,50,29,50s7.49-1.44,11.93-5.68A9.58,9.58,0,0,0,43.46,40c.82-2.8,2.34-8.43,2.53-12.3C46.24,22.4,46,6.18,29,6.84Z"/><ellipse class="f" cx="20.86" cy="27.5" rx="2.21" ry="2.83"/><ellipse class="f" cx="37.95" cy="27.5" rx="2.21" ry="2.83"/><polygon class="f" points="38.48 26.75 41.14 25.99 40.11 27.39 38.48 26.75"/><polygon class="f" points="20.34 26.75 17.68 25.99 18.7 27.39 20.34 26.75"/><path class="g" d="M24.36,38.41a5.91,5.91,0,0,0,10.77,0Z"/><circle class="h" cx="18.4" cy="33.76" r="2.46"/><circle class="h" cx="40.17" cy="33.76" r="2.46"/><path class="i" d="M27.54,22.73c-3.08-3.76-14.7-1.09-14.71-1.09.21.85.4,1.69.57,2.51.86.09.91,2,1,2.74.42,3.43,2.71,5.95,7.53,5.83s6-3.75,6.16-6A8.5,8.5,0,0,0,27.54,22.73ZM27,26.94a5,5,0,0,1-5.18,5c-.31,0-.61,0-.89,0-4.8,0-5.62-4.21-5.72-6.87a2.84,2.84,0,0,1,2.56-3c.88-.09,1.87-.09,3-.09,3.59,0,5.15.86,5.57,1.54A6.09,6.09,0,0,1,27,26.94Z"/><path class="i" d="M30.95,26.77c.2,2.2,1.33,5.7,6.16,6s7.12-2.41,7.53-5.83c.09-.71.14-2.65,1-2.74.17-.83.35-1.67.57-2.51,0,0-11.63-2.66-14.71,1.09A8.49,8.49,0,0,0,30.95,26.77Zm1.75-3.19c.42-.69,2-1.54,5.57-1.54,1.15,0,2.14,0,3,.09a2.84,2.84,0,0,1,2.56,3c-.09,2.66-.92,6.86-5.72,6.87-.29,0-.59,0-.89,0a5,5,0,0,1-5.18-5A6.09,6.09,0,0,1,32.7,23.57Z"/><path class="i" d="M31.61,25.68a3.69,3.69,0,0,0-2.17-.62,3.19,3.19,0,0,0-2,.62l-.63-1.74h5.43Z"/><polygon class="j" points="43.69 58.64 43.69 66.35 29.74 70.37 15.79 66.35 15.79 58.64 13.38 59.41 11.63 73.72 29.6 73.72 29.74 73.72 29.89 73.72 47.86 73.72 46.11 59.41 43.69 58.64"/><path class="k" d="M41.19,55c1.2-1.55,3.12-2.51,4.05-4.23a4.67,4.67,0,0,0,.22-3.94,4.49,4.49,0,0,0-.49-.89A8,8,0,0,0,35.84,58a2.41,2.41,0,0,0,4.31-.9A5.86,5.86,0,0,1,41.19,55Z"/><path class="l" d="M40.33,55.7c-.94,1.21-2.44,2-3.17,3.31A3.65,3.65,0,0,0,37,62.09a3.51,3.51,0,0,0,.38.7,6.28,6.28,0,0,0,7.13-9.48,1.88,1.88,0,0,0-3.37.71A4.58,4.58,0,0,1,40.33,55.7Z"/><path class="m" d="M37.78,62.52a3.75,3.75,0,0,0-1.58,2.92,28.3,28.3,0,0,0,.42,3,5.09,5.09,0,0,1-1.84,4.27,6.83,6.83,0,0,0,9.29-6.49,5.06,5.06,0,0,0-.79-2.74A4.09,4.09,0,0,0,37.78,62.52Z"/><path class="n" d="M27.34,8.66l-.1,12a30.58,30.58,0,0,0,5.21-5.37c2.08-3,3.43-8.38,0-11.05C28.8,1.38,27.37,5.41,27.34,8.66Z"/><path class="o" d="M11.46,21c-.07,3.31.48,7.07,3.2,9a20.86,20.86,0,0,1,2.27-13.8C18.14,13.91,26.11,8,26,6.45c-.28-4.68-8.32-.79-9.69.53C12.62,10.56,11.56,16,11.46,21Z"/><path class="p" d="M44.36,31.85a24.3,24.3,0,0,0,4.72-11.18A15.69,15.69,0,0,0,46.14,9.08C44.12,6.54,40,3.65,38.28,8c-1.43,3.53,2.88,7.37,4.16,10.47A27.28,27.28,0,0,1,44.36,31.85Z"/><path class="q" d="M19.68,10.9a13.31,13.31,0,0,0-1.13,10.58c.09-2.35,1.81-4.32,3.63-5.81s3.9-2.76,5.24-4.69S29.91,3.79,27,3.48C24.51,3.23,20.7,9.12,19.68,10.9Z"/><path class="r" d="M32.74,9.21a41.73,41.73,0,0,0,1.75,4.47,9.13,9.13,0,0,1,.74,4.78,19.32,19.32,0,0,0,4.06-5C41.06,10,40.78,4.49,37,3,33.74,1.78,31.75,5.51,32.74,9.21Z"/></svg>