<svg xmlns="http://www.w3.org/2000/svg" xmlns:xlink="http://www.w3.org/1999/xlink" viewBox="0 0 68.77 71.21"><defs><style>.a{fill:#d8aa8b;}.b{fill:#c1977a;}.c{fill:#332113;}.d{fill:#4cbcb6;}.e{fill:#fff;}.f{fill:url(#a);}</style><linearGradient id="a" x1="13.35" y1="16.43" x2="53.71" y2="16.43" gradientUnits="userSpaceOnUse"><stop offset="0" stop-color="#6b2405"/><stop offset="1" stop-color="#904f22"/></linearGradient></defs><title>people-1</title><path class="a" d="M62.91,59.91a14,14,0,0,0-4.34-2l-1.65-.44h0l-13-4.23a2.55,2.55,0,0,1-1.82-2.1c-.53-2.72-.47-9.25-.45-10.41a.17.17,0,0,0-.19-.16H27.3a.17.17,0,0,0-.19.16,78.41,78.41,0,0,1-.45,10.41,2.53,2.53,0,0,1-1.82,2.1l-13,4.23h0l-1.69.45a13.49,13.49,0,0,0-3.79,1.65C.42,63.46.25,69.83,0,71a.17.17,0,0,0,.18.19h68.4a.17.17,0,0,0,.18-.19C68.53,69.87,68.44,63.82,62.91,59.91Z"/><path class="b" d="M41.83,48.66c-.06-3-.17-5.9-.17-6.67a.19.19,0,0,0-.19-.2H27.31a.19.19,0,0,0-.19.2c0,.77-.11,3.64-.18,6.69,1,1.05,4.76,2.55,7.28,2.57A16.56,16.56,0,0,0,41.83,48.66Z"/><path class="a" d="M21,26.7c1,2.69.43,6.89-1.27,7.7s-3.89-2.07-4.88-4.76-.43-5.52,1.27-6.34S20,24,21,26.7Z"/><path class="a" d="M47.76,26.7c-1,2.69-.43,6.89,1.27,7.7s3.89-2.07,4.88-4.76.43-5.52-1.27-6.34S48.76,24,47.76,26.7Z"/><path class="a" d="M34.23,2.87c-16.85-.56-17.1,15.58-16.85,20.9a64.9,64.9,0,0,0,1.92,12.3c.47,1.61,1.32,4.29,2.55,5.46,3.29,3.14,7.37,5.92,9.9,6.88a8.57,8.57,0,0,0,2.48.25,8.57,8.57,0,0,0,2.48-.25c2.52-1,6.61-3.74,9.9-6.88,1.22-1.17,2.08-3.85,2.55-5.46a64.9,64.9,0,0,0,1.92-12.3C51.33,18.45,51.09,2.31,34.23,2.87Z"/><ellipse class="c" cx="25.51" cy="25.12" rx="2.11" ry="2.39"/><ellipse class="c" cx="42.6" cy="25.12" rx="2.11" ry="2.39"/><path class="d" d="M56.91,57.46h0l-11.2-3.64c-2.25,2.66-7.34,6.42-11.36,6.42S25.5,56.85,23,53.81l-11.2,3.64h0l-.79.21V71.21H57.7V57.66Z"/><path class="e" d="M28.85,36.75a5.91,5.91,0,0,0,10.77,0Z"/><path class="f" d="M53.08,14.47c-.65-2.76-3.71-8-6.92-7.61a9.4,9.4,0,0,0-3.59-4.94A12.67,12.67,0,0,0,33.67.15C28.72.81,22.74,2.61,19.5,6.68s-6.3,9.9-6.14,15.26A18.84,18.84,0,0,1,15.89,19a24.85,24.85,0,0,0,3.48,13.85,27.67,27.67,0,0,1,1.13-9.34,16,16,0,0,0,.66,4.36c-.14-.46,3.13-4.46,4-5.65,0,.22,0,.44,0,.65,0-.5,5.28-3.63,6-4.21a39.26,39.26,0,0,0,4.09-4.08c-.45.8-.86,1.61-1.23,2.43s-1.58,5.77-2.08,6a21.62,21.62,0,0,0,9.37-7.64A7.39,7.39,0,0,0,42.28,13l.56,0c.06.18.13.36.2.54a21.74,21.74,0,0,0,2.37,3.71,25.12,25.12,0,0,1,4.4,15.64A23.28,23.28,0,0,0,53.08,14.47Z"/></svg>