<svg xmlns="http://www.w3.org/2000/svg" xmlns:xlink="http://www.w3.org/1999/xlink" viewBox="0 0 57.97 80.28"><defs><style>.a{fill:url(#a);}.b{fill:url(#b);}.c{fill:#d8aa8b;}.d{fill:#c1977a;}.e{fill:#332113;}.f{fill:#fff;stroke:#c44a06;stroke-miterlimit:10;stroke-width:1.93px;}.g{fill:#d68572;}.h{fill:#ff4f7f;}.i{fill:url(#c);}.j{fill:url(#d);}.k{fill:url(#e);}.l{fill:url(#f);}</style><linearGradient id="a" x1="29.01" y1="-0.09" x2="29.01" y2="17.81" gradientUnits="userSpaceOnUse"><stop offset="0.33" stop-color="#3a1e0b"/><stop offset="0.54" stop-color="#3d1f0c"/><stop offset="0.67" stop-color="#45240e"/><stop offset="0.78" stop-color="#542d12"/><stop offset="0.87" stop-color="#683817"/><stop offset="0.96" stop-color="#83471e"/><stop offset="1" stop-color="#904f22"/></linearGradient><linearGradient id="b" x1="29.3" y1="6.67" x2="29.3" y2="48.22" xlink:href="#a"/><linearGradient id="c" x1="11.18" y1="28.85" x2="11.18" y2="37.13" xlink:href="#a"/><linearGradient id="d" x1="96.44" y1="28.85" x2="96.44" y2="37.13" gradientTransform="matrix(-1, 0, 0, 1, 143.24, 0)" xlink:href="#a"/><linearGradient id="e" x1="28.99" y1="11.37" x2="28.99" y2="30.36" xlink:href="#a"/><linearGradient id="f" x1="16.11" y1="47.31" x2="16.11" y2="77.82" xlink:href="#a"/></defs><title>people9</title><path class="a" d="M37.86,10.16c0,4.89-4,7.55-8.85,7.55S20.15,15,20.15,10.16,24.12,0,29,0,37.86,5.27,37.86,10.16Z"/><circle class="b" cx="29.3" cy="27.44" r="20.55"/><path class="c" d="M52.94,69.37a11.43,11.43,0,0,0-3.73-1.94L36.64,63.5h0a2.4,2.4,0,0,1-1.56-2,91.25,91.25,0,0,1-.39-10.66.16.16,0,0,0-.16-.16H23.44a.16.16,0,0,0-.16.16,94.87,94.87,0,0,1-.39,10.66,2.38,2.38,0,0,1-1.56,2h0L8.73,67.43A11,11,0,0,0,5.47,69C.36,72.79.21,79,0,80.1a.16.16,0,0,0,.16.19H57.82A.16.16,0,0,0,58,80.1C57.77,79,57.69,73.15,52.94,69.37Z"/><path class="c" d="M52.94,69.37a11.43,11.43,0,0,0-3.73-1.94L36.64,63.5h0a2.4,2.4,0,0,1-1.56-2,91.25,91.25,0,0,1-.39-10.66.16.16,0,0,0-.16-.16H23.44a.16.16,0,0,0-.16.16,94.87,94.87,0,0,1-.39,10.66,2.38,2.38,0,0,1-1.56,2h0L8.73,67.43A11,11,0,0,0,5.47,69C.36,72.79.21,79,0,80.1a.16.16,0,0,0,.16.19H57.82A.16.16,0,0,0,58,80.1C57.77,79,57.69,73.15,52.94,69.37Z"/><path class="d" d="M34.72,56.62c-.05-2.36,0-4.6,0-5.2a.16.16,0,0,0-.16-.16H23.44a.16.16,0,0,0-.16.16c0,.6,0,2.83,0,5.2A17.75,17.75,0,0,0,34.72,56.62Z"/><path class="c" d="M15.62,36.47c1,2.37.43,6.07-1.27,6.79s-3.89-1.83-4.88-4.2S9,34.19,10.73,33.47,14.62,34.1,15.62,36.47Z"/><path class="c" d="M42.36,36.47c-1,2.37-.43,6.07,1.27,6.79s3.89-1.83,4.88-4.2.43-4.87-1.27-5.59S43.36,34.1,42.36,36.47Z"/><path class="c" d="M29,13.07C12,12.4,11.73,28.63,12,34c.18,3.87,1.71,9.5,2.53,12.3a9.58,9.58,0,0,0,2.55,4.25C21.5,54.75,29,56.19,29,56.19s7.49-1.44,11.93-5.68a9.58,9.58,0,0,0,2.55-4.25c.82-2.8,2.34-8.43,2.53-12.3C46.24,28.63,46,12.4,29,13.07Z"/><ellipse class="e" cx="20.1" cy="35.32" rx="2.21" ry="2.61"/><ellipse class="e" cx="37.2" cy="35.32" rx="2.21" ry="2.61"/><path class="f" d="M22.93,46A6.64,6.64,0,0,0,35,46Z"/><circle class="g" cx="17.64" cy="41.59" r="2.46"/><circle class="g" cx="39.41" cy="41.59" r="2.46"/><path class="h" d="M.75,76a26.2,26.2,0,0,0-.75,4,.16.16,0,0,0,.16.19H57.82A.16.16,0,0,0,58,80.1c-.21-1.11-.28-6.95-5-10.73a11.44,11.44,0,0,0-3.73-1.94l-.53-.16A64.26,64.26,0,0,1,29.83,75C21.62,76.93,11.46,77.2.75,76Z"/><path class="i" d="M13,40.07q.1-5.61.21-11.22c0-1.77.47-5.3-2.52-4.4-2.45.74-1.28,4.77-1,6.62a27.84,27.84,0,0,0,1.24,4.64C11.34,36.81,13,39,13,40.07Z"/><path class="j" d="M45,40.07q-.1-5.61-.21-11.22c0-1.77-.47-5.3,2.52-4.4,2.45.74,1.28,4.77,1,6.62A27.83,27.83,0,0,1,47,35.71C46.63,36.81,45,39,45,40.07Z"/><path class="k" d="M48,23.86c0-6-8-12.39-19-12.39S10,17.83,10,23.86c0,1.56-.27,2.61.81,4,0,0,7.09,2.44,18.57,2.44a63.38,63.38,0,0,0,17.8-2.44C48.25,26.48,48,25.43,48,23.86Z"/><path class="l" d="M16.74,54.38C14.62,57.24,11.09,58.5,8.65,61a11.62,11.62,0,0,0,.41,16.64c-.67-2.17,1-4.44,3-5.47s4.36-1.26,6.49-2a13.5,13.5,0,0,0,7.83-7.57c.49-1.21.6-4.07.23-7a26.4,26.4,0,0,1-8.59-4.21A12.85,12.85,0,0,1,16.74,54.38Z"/></svg>