<svg xmlns="http://www.w3.org/2000/svg" xmlns:xlink="http://www.w3.org/1999/xlink" viewBox="0 0 68.77 70.53"><defs><style>.a{fill:#adecc0;}.b{fill:#e5b295;}.c{fill:#d39e7a;}.d{fill:#332113;}.e{fill:#fff;}.f{fill:#3a1e0b;}.g{fill:url(#a);}</style><linearGradient id="a" x1="-18.35" y1="-0.48" x2="8.95" y2="-0.48" gradientTransform="translate(47.55 8.4) rotate(-4.93)" gradientUnits="userSpaceOnUse"><stop offset="0" stop-color="#3a1e0b"/><stop offset="0.71" stop-color="#904f22"/><stop offset="1" stop-color="#a7732e"/></linearGradient></defs><title>people2</title><path class="a" d="M62.91,59.23a14,14,0,0,0-4.34-2l-1.65-.44h0L45.22,53h0a16.27,16.27,0,0,1-21.67,0h0L11.82,56.77h0l-1.69.45a13.49,13.49,0,0,0-3.79,1.65C.42,62.78.25,69.15,0,70.34a.17.17,0,0,0,.18.19h68.4a.17.17,0,0,0,.18-.19C68.53,69.18,68.44,63.14,62.91,59.23Z"/><path class="b" d="M45.22,53l-1.29-.42a2.55,2.55,0,0,1-1.82-2.1c-.53-2.72-.47-9.25-.45-10.41a.17.17,0,0,0-.19-.16H27.3a.17.17,0,0,0-.19.16,78.41,78.41,0,0,1-.45,10.41,2.53,2.53,0,0,1-1.82,2.1L23.55,53h0a16.27,16.27,0,0,0,21.67,0Z"/><path class="c" d="M41.83,48c-.06-3-.17-5.9-.17-6.67a.19.19,0,0,0-.19-.2H27.31a.19.19,0,0,0-.19.2c0,.77-.11,3.64-.18,6.69,1,1.05,4.76,2.55,7.28,2.57A16.56,16.56,0,0,0,41.83,48Z"/><path class="b" d="M21,26c1,2.69.43,6.89-1.27,7.7S15.86,31.64,14.86,29s-.43-5.52,1.27-6.34S20,23.33,21,26Z"/><path class="b" d="M47.76,26c-1,2.69-.43,6.89,1.27,7.7s3.89-2.07,4.88-4.76.43-5.52-1.27-6.34S48.75,23.33,47.76,26Z"/><path class="b" d="M34.31,2.79c-16.85-.56-17.1,15.58-16.85,20.9A64.9,64.9,0,0,0,19.39,36c.47,1.61,1.33,4.29,2.55,5.46,3.29,3.14,7.37,5.92,9.9,6.88a8.57,8.57,0,0,0,2.48.25,8.57,8.57,0,0,0,2.48-.25c2.52-1,6.61-3.74,9.9-6.88,1.22-1.17,2.08-3.85,2.55-5.46a64.9,64.9,0,0,0,1.92-12.3C51.41,18.37,51.16,2.23,34.31,2.79Z"/><ellipse class="d" cx="25.84" cy="24.44" rx="2.11" ry="2.39"/><ellipse class="d" cx="42.93" cy="24.44" rx="2.11" ry="2.39"/><path class="e" d="M30,37.17a4.77,4.77,0,0,0,8.69,0Z"/><path class="f" d="M30.21,33.21a8.65,8.65,0,0,0-2.1,1.61,3.24,3.24,0,0,1-2.49.93,7.28,7.28,0,0,0,4.83,1.41c1.35-.09,4.13-1.18,4-2.66S31.57,32.63,30.21,33.21Z"/><path class="f" d="M38.56,33.21a8.65,8.65,0,0,1,2.1,1.61,3.24,3.24,0,0,0,2.49.93,7.28,7.28,0,0,1-4.83,1.41c-1.35-.09-4.13-1.18-4-2.66S37.2,32.63,38.56,33.21Z"/><path class="f" d="M50.69,9.64a2.17,2.17,0,0,0-.3-.82c-2.64-4.25-8.25-7.36-15.54-7.08C27.56,1.45,22,4.56,19.32,8.81a2.17,2.17,0,0,0-.3.82c-1.9,3.63-1.16,7.85-1.21,10.89a21.64,21.64,0,0,0,1.08,5.75c.5-2.73.33-9.89,1-12.65.46-2,10-1.45,15-1.45s9.52,1.32,13.08-.1A33.25,33.25,0,0,1,49.87,18c.63,2.76.45,5.57,1,8.3a21.64,21.64,0,0,0,1.08-5.75C51.85,17.48,52.58,13.27,50.69,9.64Z"/><path class="g" d="M37.35,16.46c4.78,1.88,10.25.63,14.37-3.18C54.44,10.77,56.55,6.77,56,2.66A5.69,5.69,0,0,1,49.1,6c-2.65-.68-4.94-2.6-7.27-4.09C38.6-.2,32-1.87,29.48,4.41,27.16,10.19,34,15.15,37.35,16.46Z"/></svg>