<svg xmlns="http://www.w3.org/2000/svg" xmlns:xlink="http://www.w3.org/1999/xlink" viewBox="0 0 64.06 84.41"><defs><style>.a{fill:url(#a);}.b{fill:#c68458;}.c{fill:#f6a1ff;}.d{fill:#a56a42;}.e{fill:#332113;}.f{fill:#fff;stroke:#bc2424;stroke-miterlimit:10;stroke-width:1.71px;}.g{fill:#d6725f;}.h{fill:url(#b);}</style><radialGradient id="a" cx="32.03" cy="31.43" r="31.73" gradientUnits="userSpaceOnUse"><stop offset="0.26" stop-color="#b48e63"/><stop offset="1" stop-color="#f2c15b"/></radialGradient><linearGradient id="b" x1="31.98" y1="5.35" x2="31.98" y2="38.99" xlink:href="#a"/></defs><title>people5</title><path class="a" d="M63.88,40.89a3.51,3.51,0,0,0-1.8-2l-.23-.1c0-.06.05-.12.07-.19a3.64,3.64,0,0,0,.38-1.79v-.35A4.79,4.79,0,0,0,61.63,34l-.73-.93a3.76,3.76,0,0,0,.36-.36,3.51,3.51,0,0,0,.91-1.54,3.52,3.52,0,0,0,.33-1.74v-.35a4.64,4.64,0,0,0-.7-2.34l-.79-1a4.8,4.8,0,0,0-.58-.45l.37-.26A3.86,3.86,0,0,0,62,22.47,2.84,2.84,0,0,0,61.74,21a3.43,3.43,0,0,0-2-2.14,2.89,2.89,0,0,0-1.41-.37H57.9a5.37,5.37,0,0,0,.62-3c-.31-2.79-2.57-4.36-5.13-4.57,0-.15,0-.29.05-.45a5.69,5.69,0,0,0-5.34-5.91A6.31,6.31,0,0,0,45.78,5a5,5,0,0,0-5-3.35,3.72,3.72,0,0,0-1.91.54l0-.06-.59-.84A4,4,0,0,0,35.6,0,3,3,0,0,0,34,.27,3,3,0,0,0,32.69,1a3,3,0,0,0-.66.79A3,3,0,0,0,31.37,1,3,3,0,0,0,30,.27,3,3,0,0,0,28.47,0a4,4,0,0,0-2.7,1.29l-.59.84,0,.06a3.72,3.72,0,0,0-1.91-.54,5,5,0,0,0-5,3.35A6.31,6.31,0,0,0,16,4.57a5.69,5.69,0,0,0-5.34,5.91c0,.15,0,.3.05.45-2.56.22-4.82,1.78-5.13,4.57a5.37,5.37,0,0,0,.62,3H5.71a2.89,2.89,0,0,0-1.41.37,2.88,2.88,0,0,0-1.21.83A2.89,2.89,0,0,0,2.32,21a2.84,2.84,0,0,0-.26,1.47,3.86,3.86,0,0,0,1.2,2.62l.37.26a4.8,4.8,0,0,0-.58.45l-.79,1a4.64,4.64,0,0,0-.7,2.34v.35A3.52,3.52,0,0,0,1.9,31.2a3.51,3.51,0,0,0,.91,1.54,3.76,3.76,0,0,0,.36.36L2.43,34a4.79,4.79,0,0,0-.67,2.42v.35a3.64,3.64,0,0,0,.38,1.79c0,.06,0,.12.07.19l-.23.1a3.51,3.51,0,0,0-1.8,2A3.56,3.56,0,0,0,.32,43.5l.35.69a3.62,3.62,0,0,0,2,1.8,2.62,2.62,0,0,0,1.1.17,2.41,2.41,0,0,0,.29.73,2.39,2.39,0,0,0,.74,1,2.43,2.43,0,0,0,1.07.59,2.42,2.42,0,0,0,1.22.2l.28,0a3.9,3.9,0,0,0-.59,2V51a3,3,0,0,0,.35,1.53A2.92,2.92,0,0,0,8,53.83a3,3,0,0,0,1.27.79,3,3,0,0,0,1.48.32l1-.15.3-.11a3.38,3.38,0,0,0,.21,1A3.42,3.42,0,0,0,13,57.24a3.37,3.37,0,0,0,1.36,1.12,3.43,3.43,0,0,0,1.7.59l1.17,0a4.62,4.62,0,0,0,1-.26,3,3,0,0,0,.48.74,3,3,0,0,0,1.2.95,3,3,0,0,0,1.49.49l1.07,0a4,4,0,0,0,1.35-.5,5.26,5.26,0,0,0,4.69,2.54A5.15,5.15,0,0,0,32,61.61a5.15,5.15,0,0,0,3.53,1.25,5.26,5.26,0,0,0,4.69-2.54,4,4,0,0,0,1.35.5l1.07,0a3,3,0,0,0,1.49-.49,3,3,0,0,0,1.2-.95,3,3,0,0,0,.48-.74,4.62,4.62,0,0,0,1,.26L48,59a3.43,3.43,0,0,0,1.7-.59A3.37,3.37,0,0,0,51,57.24a3.42,3.42,0,0,0,.75-1.55,3.38,3.38,0,0,0,.21-1l.3.11,1,.15a4.39,4.39,0,0,0,2.75-1.11,2.92,2.92,0,0,0,.84-1.28A3,3,0,0,0,57.27,51v-.35a3.9,3.9,0,0,0-.59-2l.28,0a3.59,3.59,0,0,0,2.29-.79,4,4,0,0,0,1-1.74,2.62,2.62,0,0,0,1.1-.17,3.62,3.62,0,0,0,2-1.8l.35-.69A3.56,3.56,0,0,0,63.88,40.89Z"/><path class="b" d="M56.22,73.49a11.43,11.43,0,0,0-3.73-1.94L39.93,67.63h0a2.4,2.4,0,0,1-1.56-2A91.25,91.25,0,0,1,38,54.94a.16.16,0,0,0-.16-.16H26.73a.16.16,0,0,0-.16.16,94.87,94.87,0,0,1-.39,10.66,2.38,2.38,0,0,1-1.56,2h0L12,71.56a11,11,0,0,0-3.25,1.6C3.65,76.92,3.5,83.07,3.29,84.22a.16.16,0,0,0,.16.19H61.1a.16.16,0,0,0,.16-.19C61.05,83.11,61,77.27,56.22,73.49Z"/><path class="c" d="M4,80.17a26.2,26.2,0,0,0-.75,4,.16.16,0,0,0,.16.19H61.1a.16.16,0,0,0,.16-.19c-.21-1.11-.28-6.95-5-10.73a11.44,11.44,0,0,0-3.73-1.94L52,71.38a64.26,64.26,0,0,1-18.86,7.74C24.91,81.06,14.75,81.33,4,80.17Z"/><path class="d" d="M37.76,59.14c-.05-2.36,0-4.6,0-5.2a.16.16,0,0,0-.16-.16H26.48a.16.16,0,0,0-.16.16c0,.6,0,2.83,0,5.2A17.75,17.75,0,0,0,37.76,59.14Z"/><path class="b" d="M18.66,39c1,2.37.43,6.07-1.27,6.79S13.5,44,12.51,41.58s-.43-4.87,1.27-5.59S17.66,36.62,18.66,39Z"/><path class="b" d="M45.4,39c-1,2.37-.43,6.07,1.27,6.79s3.89-1.83,4.88-4.2S52,36.71,50.29,36,46.4,36.62,45.4,39Z"/><path class="b" d="M32,15.59c-17-.67-17.26,15.56-17,20.9.18,3.87,1.71,9.5,2.53,12.3A9.58,9.58,0,0,0,20.1,53C24.54,57.27,32,58.71,32,58.71S39.52,57.27,44,53a9.58,9.58,0,0,0,2.55-4.25c.82-2.8,2.34-8.43,2.53-12.3C49.29,31.15,49,14.92,32,15.59Z"/><ellipse class="e" cx="23.15" cy="37.84" rx="2.21" ry="2.83"/><ellipse class="e" cx="40.24" cy="37.84" rx="2.21" ry="2.83"/><polygon class="e" points="40.77 37.1 43.43 36.34 42.4 37.74 40.77 37.1"/><polygon class="e" points="22.62 37.1 19.96 36.34 20.99 37.74 22.62 37.1"/><path class="f" d="M26.65,48.76a5.91,5.91,0,0,0,10.77,0Z"/><circle class="g" cx="20.68" cy="44.11" r="2.46"/><circle class="g" cx="42.46" cy="44.11" r="2.46"/><path class="h" d="M32,13.53c-6-2.05-23.22,6.49-18.5,20.55.17,0,2,8.27,5.09,11.06A8.8,8.8,0,0,1,17,38a21.6,21.6,0,0,1,1.76-5.29C25.16,29.48,30,21.36,32,19.55c1.92,1.72,7.33,9.13,13,12.65A23.14,23.14,0,0,1,47,38a8.8,8.8,0,0,1-1.59,7.12c3-2.79,4.92-11.06,5.09-11.06C55.2,20,38,11.48,32,13.53Z"/></svg>