<svg xmlns="http://www.w3.org/2000/svg" viewBox="0 0 72.8 25.07"><defs><style>.a{opacity:0.35;}.b{fill:#e8e3cc;}</style></defs><title>sky2</title><g class="a"><path class="b" d="M18.5,5H23a2.51,2.51,0,0,1-.35,5H45a2.51,2.51,0,0,1-.35-5h7.64a2.52,2.52,0,0,0,0-5H18.5a2.52,2.52,0,1,0,0,5Z"/><path class="b" d="M53.33,20H40.74a2.51,2.51,0,0,1,.79-4.89H25A2.51,2.51,0,0,1,25.76,20H10a2.52,2.52,0,0,0,0,5H53.33a2.52,2.52,0,0,0,0-5Z"/><path class="b" d="M70.28,10H2.52a2.52,2.52,0,0,0,0,5H70.28a2.52,2.52,0,1,0,0-5Z"/></g></svg>