<svg xmlns="http://www.w3.org/2000/svg" viewBox="0 0 90.61 58.38"><defs><style>.a{fill:#b79030;}.b{fill:#95cf50;}.c{fill:#79aa33;}</style></defs><title>tree4</title><rect class="a" x="11.22" y="27.87" width="9.61" height="31.33" transform="translate(46.23 8.33) rotate(60.83)"/><path class="b" d="M89.37,7.33,40.5,57.11a4.27,4.27,0,0,1-6.77-1L14.58,21.84a4.27,4.27,0,0,1,2.74-6.26L85.34.11A4.32,4.32,0,0,1,89.37,7.33Z"/><path class="c" d="M76.35,5.61a4,4,0,0,0,3.87,6.93Z"/><path class="c" d="M51,11.95a4,4,0,0,0,3.87,6.93Z"/><path class="c" d="M65.41,13.3a4,4,0,0,0,3.87,6.93Z"/><path class="c" d="M50,29.37a4,4,0,0,0,3.87,6.93Z"/><path class="c" d="M34.71,19.82a4,4,0,0,0,3.87,6.93Z"/><path class="c" d="M29.64,33.26a4,4,0,0,0,3.87,6.93Z"/></svg>