<svg xmlns="http://www.w3.org/2000/svg" viewBox="0 0 46.86 98.97"><defs><style>.a{fill:#b79030;}.b{fill:#95cf50;}.c{fill:#79aa33;}</style></defs><title>tree1</title><rect class="a" x="21.74" y="66.96" width="9.61" height="31.33" transform="translate(-18.26 8.3) rotate(-13.27)"/><path class="b" d="M11.81,2.16l34.5,60.63A4.27,4.27,0,0,1,43.54,69l-38.26,9A4.27,4.27,0,0,1,0,73.72L3.77,4.06A4.32,4.32,0,0,1,11.81,2.16Z"/><path class="c" d="M6.59,14.22a4,4,0,0,0,7.72-1.82Z"/><path class="c" d="M5.75,40.3a4,4,0,0,0,7.72-1.82Z"/><path class="c" d="M11,26.84A4,4,0,0,0,18.71,25Z"/><path class="c" d="M22.21,46.11a4,4,0,0,0,7.72-1.82Z"/><path class="c" d="M8.85,58.16a4,4,0,0,0,7.72-1.82Z"/><path class="c" d="M20.4,66.71a4,4,0,0,0,7.72-1.82Z"/></svg>