<svg xmlns="http://www.w3.org/2000/svg" viewBox="0 0 70.88 70.22"><defs><style>.a{fill:#b79030;}.b{fill:#95cf50;}.c{fill:#79aa33;}</style></defs><title>tree3</title><rect class="a" x="12.15" y="32.73" width="11.98" height="39.07" transform="translate(42.75 2.72) rotate(45.56)"/><ellipse class="b" cx="42.86" cy="28.02" rx="28.13" ry="27.91" transform="translate(-7.36 38.03) rotate(-44.44)"/><path class="c" d="M47.15,42.62a3.93,3.93,0,0,0,5.46,5.57Z"/><path class="c" d="M31.28,9a4,4,0,0,0,5.58,5.69Z"/><path class="c" d="M47.21,9a3.84,3.84,0,0,0,5.33,5.44Z"/><path class="c" d="M40.92,24.83a3.84,3.84,0,0,0,5.33,5.44Z"/><path class="c" d="M57.53,21.53A3.84,3.84,0,0,0,62.86,27Z"/><path class="c" d="M56.25,33.3a3.84,3.84,0,0,0,5.33,5.44Z"/><path class="c" d="M24.67,24.44A3.84,3.84,0,0,0,30,29.88Z"/><path class="c" d="M30.07,38.14a3.84,3.84,0,0,0,5.33,5.44Z"/></svg>