<svg xmlns="http://www.w3.org/2000/svg" viewBox="0 0 72.27 72.27"><defs><style>.a{fill:#d7d2bb;}.b{fill:#787563;}</style></defs><title>windmill-animate</title><path class="a" d="M36.21,30.74l.46,1.9,1-1.67,16-26.4A36,36,0,0,0,28.87.74Z"/><path class="a" d="M1.39,46A36,36,0,0,0,16.25,66.3l16-26.4,1-1.67-1.9.46Z"/><path class="a" d="M70.88,26.23A36,36,0,0,0,56,6L40,32.37,39,34l1.9-.46Z"/><path class="a" d="M35.6,39.64l-1,1.67-16,26.4A36,36,0,0,0,43.4,71.53l-7.34-30Z"/><path class="a" d="M32.63,35.6l-1.67-1-26.4-16A36,36,0,0,0,.74,43.4l30-7.34Z"/><path class="a" d="M39.64,36.68l1.67,1,26.4,16a36,36,0,0,0,3.82-24.84l-30,7.34Z"/><path class="a" d="M38.23,39l.46,1.9,7.34,30A36,36,0,0,0,66.3,56L39.9,40Z"/><path class="a" d="M34,33.28l-.46-1.9-7.34-30A36,36,0,0,0,6,16.25l26.4,16Z"/><circle class="b" cx="36.14" cy="36.14" r="9.8" transform="translate(-13.5 48.29) rotate(-58.75)"/></svg>