<svg xmlns="http://www.w3.org/2000/svg" viewBox="0 0 18.45 821.31"><defs><style>.a{fill:none;stroke:#8363c9;stroke-miterlimit:10;stroke-width:2px;}</style></defs><title>balls-blue-4</title><circle class="a" cx="9.23" cy="91.51" r="8.23"/><circle class="a" cx="9.23" cy="119.23" r="8.23"/><circle class="a" cx="9.23" cy="146.94" r="8.23"/><circle class="a" cx="9.23" cy="174.66" r="8.23"/><circle class="a" cx="9.23" cy="202.37" r="8.23"/><circle class="a" cx="9.23" cy="230.08" r="8.23"/><circle class="a" cx="9.23" cy="257.8" r="8.23"/><circle class="a" cx="9.23" cy="285.51" r="8.23"/><circle class="a" cx="9.23" cy="313.23" r="8.23"/><circle class="a" cx="9.23" cy="340.94" r="8.23"/><circle class="a" cx="9.23" cy="368.66" r="8.23"/><circle class="a" cx="9.23" cy="396.37" r="8.23"/><circle class="a" cx="9.23" cy="424.08" r="8.23"/><circle class="a" cx="9.23" cy="451.8" r="8.23"/><circle class="a" cx="9.23" cy="479.51" r="8.23"/><circle class="a" cx="9.23" cy="507.23" r="8.23"/><circle class="a" cx="9.23" cy="534.94" r="8.23"/><circle class="a" cx="9.23" cy="562.66" r="8.23"/><circle class="a" cx="9.23" cy="590.37" r="8.23"/><circle class="a" cx="9.23" cy="618.08" r="8.23"/><circle class="a" cx="9.23" cy="645.8" r="8.23"/><circle class="a" cx="9.23" cy="673.51" r="8.23"/><circle class="a" cx="9.23" cy="701.23" r="8.23"/><circle class="a" cx="9.23" cy="728.94" r="8.23"/><circle class="a" cx="9.23" cy="756.66" r="8.23"/><circle class="a" cx="9.23" cy="784.37" r="8.23"/><circle class="a" cx="9.23" cy="812.08" r="8.23"/><circle class="a" cx="9.23" cy="9.23" r="8.23"/><circle class="a" cx="9.23" cy="36.94" r="8.23"/><circle class="a" cx="9.23" cy="64.66" r="8.23"/></svg>