<svg xmlns="http://www.w3.org/2000/svg" viewBox="0 0 236.72 196.44"><defs><style>.a{fill:#9575cd;}</style></defs><title>city</title><path class="a" d="M2.43,136.7a63.8,63.8,0,0,0,16.09,26.69,79.52,79.52,0,0,0,6.3,5.75c2.27,1.8,4.6,3.59,7.09,5.24a117.48,117.48,0,0,0,16,9,126.9,126.9,0,0,0,36.72,11.31,164.38,164.38,0,0,0,40.09.88,198.91,198.91,0,0,0,20.12-3c6.66-1.31,13.24-2.94,19.68-4.87a242.74,242.74,0,0,0,36.88-14.38q8.68-4.25,16.75-9c5.36-3.14,10.48-6.43,15.37-9.79,1.07-.74,2.12-1.48,3.16-2.23V101.2H204.24V44.44H163v95.4h-4.89V53.29h-3.72V26.9h-5.12L134.71,0,120.2,26.9h-5.12V53.29h-3.72v86.55h-3.2V78.16H66.87v61.68H62.14V100.66H59V44.1L26,74.55v26.11H20.86v23.68H0A66.69,66.69,0,0,0,2.43,136.7Z"/></svg>