<svg xmlns="http://www.w3.org/2000/svg" viewBox="0 0 107.38 48.21"><defs><style>.a{fill:#e8e3cc;}</style></defs><title>cloud1</title><path class="a" d="M104.39,38.85a7.22,7.22,0,0,0-3.2-.73H96c.07-.46.13-.92.16-1.39s0-.67,0-1c0-8.83-7.61-16-17-16a18.17,18.17,0,0,0-4.37.53C74.5,18.5,74.79,0,51.39,0A22.4,22.4,0,0,0,29,21.33c-.45,0-.91-.06-1.37-.06-8.73,0-15.84,6.5-16.17,14.63,0,.19,0,.39,0,.58a14.47,14.47,0,0,0,.09,1.63H6.19a7.76,7.76,0,0,0-1,.06A6.84,6.84,0,0,0,1.82,39.6,4.63,4.63,0,0,0,0,43.16c0,2.77,2.78,5,6.19,5h95a6.94,6.94,0,0,0,4.37-1.48,4.62,4.62,0,0,0,1.82-3.56A5,5,0,0,0,104.39,38.85Z"/></svg>