<svg xmlns="http://www.w3.org/2000/svg" viewBox="0 0 69.41 31.16"><defs><style>.a{fill:#e8e3cc;}</style></defs><title>cloud2</title><path class="a" d="M67.47,25.11a4.67,4.67,0,0,0-2.07-.47H62.05c0-.3.09-.6.11-.9s0-.43,0-.65c0-5.71-4.92-10.33-11-10.33a11.73,11.73,0,0,0-2.82.34C48.15,12,48.34,0,33.22,0A14.48,14.48,0,0,0,18.75,13.79c-.29,0-.59,0-.89,0-5.64,0-10.24,4.2-10.45,9.46,0,.12,0,.25,0,.38a9.34,9.34,0,0,0,.06,1.05H4a5,5,0,0,0-.64,0,4.42,4.42,0,0,0-2.19.91A3,3,0,0,0,0,27.89c0,1.79,1.8,3.26,4,3.26H65.4a4.49,4.49,0,0,0,2.83-1,3,3,0,0,0,1.18-2.3A3.2,3.2,0,0,0,67.47,25.11Z"/></svg>