<svg xmlns="http://www.w3.org/2000/svg" viewBox="0 0 91.56 41.1"><defs><style>.a{fill:#e8e3cc;}</style></defs><title>cloud4</title><path class="a" d="M89,33.13a6.16,6.16,0,0,0-2.73-.62H81.86c.06-.39.11-.79.14-1.19s0-.57,0-.86c0-7.53-6.49-13.63-14.49-13.63a15.49,15.49,0,0,0-3.72.45c-.29-1.5,0-17.28-20-17.28A19.1,19.1,0,0,0,24.74,18.19c-.39,0-.77-.05-1.17-.05-7.44,0-13.51,5.54-13.79,12.48,0,.16,0,.33,0,.5a12.32,12.32,0,0,0,.08,1.39H5.28a6.6,6.6,0,0,0-.85.06,5.83,5.83,0,0,0-2.89,1.21A4,4,0,0,0,0,36.8c0,2.37,2.37,4.3,5.28,4.3h81A5.92,5.92,0,0,0,90,39.84a3.94,3.94,0,0,0,1.55-3A4.22,4.22,0,0,0,89,33.13Z"/></svg>