<svg xmlns="http://www.w3.org/2000/svg" xmlns:xlink="http://www.w3.org/1999/xlink" viewBox="0 0 133.36 166.2"><defs><style>.a{fill:url(#a);}.b{fill:#e5b295;}.c{fill:#d39e7a;}.d{fill:#332113;}.e,.k{fill:#fff;}.e{stroke:#d6702b;stroke-width:1.93px;}.e,.i,.j{stroke-miterlimit:10;}.f{fill:#e29e83;}.g{fill:#fff68c;}.h{fill:#bec2f5;}.i,.j{fill:none;}.i{stroke:#fff68c;stroke-width:2px;}.j{stroke:#fff;}</style><linearGradient id="a" x1="65.97" y1="136.64" x2="65.97" y2="85.44" gradientUnits="userSpaceOnUse"><stop offset="0" stop-color="#3a1e0b"/><stop offset="1" stop-color="#904f22"/></linearGradient></defs><title>entrepreneur4</title><path class="a" d="M92.48,142.26c8.89,1.62,4.58,13,11.62,7.14s10.89-88,10.21-98.83-3.3-21.8-9.11-30.78C96.61,6.54,81.12,0,65.95,0S35.28,6.54,26.71,19.79c-5.81,9-8.43,19.92-9.11,30.78s7.32,93,14.36,98.83-1.42-5.52,7.47-7.14Z"/><path class="b" d="M66.68,151.05c12.8,0,24.68-6.78,34.48-18.33l-16.87-5.26a5.52,5.52,0,0,1-3.59-4.67c-1-6-.92-21.93-.89-24.52a.36.36,0,0,0-.37-.36H53.92a.36.36,0,0,0-.37.36c0,2.56.13,18.17-.89,24.52a5.48,5.48,0,0,1-3.59,4.67L32.2,132.72C42,144.27,53.88,151.05,66.68,151.05Z"/><path class="b" d="M0,165.63H0a.36.36,0,0,0,.2.39A.36.36,0,0,1,0,165.63Z"/><path class="c" d="M79.87,111.62c-.12-5.43-.08-10.59-.07-12a.36.36,0,0,0-.37-.36H53.92a.36.36,0,0,0-.37.36c0,1.38,0,6.52-.08,12A40.84,40.84,0,0,0,79.87,111.62Z"/><path class="b" d="M35.92,65.27c2.3,5.45,1,14-2.92,15.62s-8.94-4.21-11.23-9.66-1-11.2,2.92-12.85S33.63,59.82,35.92,65.27Z"/><path class="b" d="M97.44,65.27c-2.3,5.45-1,14,2.92,15.62s8.94-4.21,11.23-9.66,1-11.2-2.92-12.85S99.73,59.82,97.44,65.27Z"/><path class="b" d="M66.68,21.44C27.55,19.91,27,47.23,27.57,59.5c.42,8.91,3.92,21.86,5.81,28.29a22,22,0,0,0,5.86,9.79c10.21,9.75,27.44,13.06,27.44,13.06s17.23-3.31,27.44-13.06A22,22,0,0,0,100,87.79c1.89-6.43,5.39-19.38,5.81-28.29C106.38,47.23,105.81,19.91,66.68,21.44Z"/><polygon class="d" points="86.77 60.91 92.89 59.17 90.52 62.39 86.77 60.91"/><polygon class="d" points="45.04 60.91 38.92 59.17 41.29 62.39 45.04 60.91"/><ellipse class="d" cx="46.24" cy="62.63" rx="5.09" ry="6"/><ellipse class="d" cx="85.57" cy="62.63" rx="5.09" ry="6"/><path class="e" d="M52.75,87.24a15.28,15.28,0,0,0,27.86,0Z"/><circle class="f" cx="40.58" cy="77.04" r="5.67"/><circle class="f" cx="90.66" cy="77.04" r="5.67"/><path class="g" d="M66.87,11.82c-22.76,0-41.21,17.84-41.21,39.84,0,2.36,1.36,6.41,1.45,6.07,5-19.55,28-23.89,39.77-23.89s34.5,3.1,39.77,23.89c.09.34,1.42-3.71,1.42-6.07C108.08,29.66,89.63,11.82,66.87,11.82Z"/><path class="h" d="M52.67,122.74v.05a5.48,5.48,0,0,1-3.59,4.67l-29,9a25.24,25.24,0,0,0-7.48,3.68C.83,148.83.49,163,0,165.63a.36.36,0,0,0,.36.43H133a.36.36,0,0,0,.36-.43c-.47-2.56-.65-16-11.58-24.68a26.31,26.31,0,0,0-8.57-4.47l-28.92-9a5.52,5.52,0,0,1-3.59-4.67v-.05q-6.82.22-14,.22T52.67,122.74Z"/><line class="i" x1="66.68" y1="120.33" x2="66.68" y2="165.63"/><path class="g" d="M66.68,120.33c-4.63,0-9.18-.21-13.66-.56-.1,1.12-.21,2.13-.35,3q6.82.22,14,.22t14-.22c-.14-.83-.26-1.84-.36-3C75.85,120.12,71.3,120.33,66.68,120.33Z"/><path class="j" d="M30,68.1a64.09,64.09,0,0,0,16.56,58.53c3.88,3.92,8.29,7.34,11.75,11.63s9,9.78,8.12,15.23"/><path class="j" d="M103.55,68.1A64.09,64.09,0,0,1,87,126.63c-3.88,3.92-8.29,7.34-11.75,11.63s-9,9.78-8.12,15.23"/><line class="j" x1="66.78" y1="151.22" x2="66.78" y2="166.2"/><path class="k" d="M108.48,68.83a3.76,3.76,0,0,1-3.77,3.75c-2.08,0-2.77-1.68-2.77-3.75s.69-3.75,2.77-3.75A3.76,3.76,0,0,1,108.48,68.83Z"/><path class="k" d="M24.87,68.83a3.76,3.76,0,0,0,3.77,3.75c2.08,0,2.77-1.68,2.77-3.75s-.69-3.75-2.77-3.75A3.76,3.76,0,0,0,24.87,68.83Z"/></svg>