<svg xmlns="http://www.w3.org/2000/svg" viewBox="0 0 239.29 146.09"><defs><style>.a{fill:#673ab7;}</style></defs><title>eolic</title><polygon class="a" points="69.02 146.09 57.05 146.09 60.48 48.51 65.61 48.51 69.02 146.09"/><polygon class="a" points="66.05 51.02 59.36 51.02 61.09 1.33 64.28 1.33 66.05 51.02"/><polygon class="a" points="58.05 51.78 60.8 45.68 105.35 67.8 104.04 70.72 58.05 51.78"/><polygon class="a" points="65.26 46.24 67.59 52.5 20.45 68.36 19.33 65.37 65.26 46.24"/><polygon class="a" points="95.02 146.09 87.79 146.09 89.85 87.23 92.96 87.23 95.02 146.09"/><polygon class="a" points="93.22 88.77 89.18 88.77 90.24 58.79 92.16 58.79 93.22 88.77"/><polygon class="a" points="88.39 89.22 90.07 85.53 116.94 98.88 116.12 100.63 88.39 89.22"/><polygon class="a" points="92.75 85.88 94.15 89.64 65.74 99.22 65.04 97.43 92.75 85.88"/><polygon class="a" points="135.26 146.09 127.76 146.09 129.91 84.91 133.13 84.91 135.26 146.09"/><polygon class="a" points="133.4 86.48 129.21 86.48 130.3 55.33 132.29 55.33 133.4 86.48"/><polygon class="a" points="128.38 86.96 130.11 83.14 158.04 97 157.22 98.84 128.38 86.96"/><polygon class="a" points="132.91 83.49 134.37 87.41 104.81 97.36 104.11 95.48 132.91 83.49"/><polygon class="a" points="151.56 146.09 147.03 146.09 148.32 109.19 150.27 109.19 151.56 146.09"/><polygon class="a" points="150.44 110.15 147.91 110.15 148.57 91.35 149.77 91.35 150.44 110.15"/><polygon class="a" points="147.41 110.43 148.46 108.12 165.31 116.49 164.8 117.59 147.41 110.43"/><polygon class="a" points="150.15 108.34 151.02 110.69 133.21 116.7 132.77 115.58 150.15 108.34"/><polygon class="a" points="21.09 146.09 16.01 146.09 17.46 104.69 19.64 104.69 21.09 146.09"/><polygon class="a" points="19.82 105.75 16.98 105.75 17.72 84.67 19.07 84.67 19.82 105.75"/><polygon class="a" points="16.43 106.07 17.6 103.48 36.5 112.87 35.95 114.11 16.43 106.07"/><polygon class="a" points="19.49 103.72 20.48 106.38 0.47 113.11 0 111.84 19.49 103.72"/><polygon class="a" points="32.12 146.09 29.05 146.09 29.92 121.11 31.24 121.11 32.12 146.09"/><polygon class="a" points="31.35 121.77 29.64 121.77 30.09 109.05 30.9 109.05 31.35 121.77"/><polygon class="a" points="29.31 121.96 30.02 120.39 41.42 126.06 41.07 126.8 29.31 121.96"/><polygon class="a" points="31.16 120.54 31.75 122.14 19.69 126.2 19.39 125.44 31.16 120.54"/><polygon class="a" points="190.94 146.09 178.86 146.09 182.32 47.61 187.5 47.61 190.94 146.09"/><polygon class="a" points="187.94 50.14 181.19 50.14 182.94 0 186.16 0 187.94 50.14"/><polygon class="a" points="179.86 50.91 182.64 44.76 227.6 67.08 226.28 70.03 179.86 50.91"/><polygon class="a" points="187.14 45.32 189.5 51.64 141.92 67.64 140.79 64.63 187.14 45.32"/><polygon class="a" points="217.18 146.09 209.88 146.09 211.96 86.69 215.1 86.69 217.18 146.09"/><polygon class="a" points="215.36 88.24 211.29 88.24 212.36 57.98 214.29 57.98 215.36 88.24"/><polygon class="a" points="210.49 88.69 212.18 84.98 239.29 98.44 238.47 100.22 210.49 88.69"/><polygon class="a" points="214.89 85.33 216.3 89.11 187.63 98.79 186.92 96.98 214.89 85.33"/></svg>