<svg xmlns="http://www.w3.org/2000/svg" viewBox="0 0 428.99 177.96"><defs><style>.a{fill:#79aa33;}.b{fill:#638e1e;}</style></defs><title>green-ground-plants</title><circle class="a" cx="267.46" cy="40.31" r="21.43" transform="translate(143.61 280.77) rotate(-71.32)"/><circle class="a" cx="241.3" cy="33.74" r="15.12" transform="translate(132.05 251.53) rotate(-71.32)"/><path class="b" d="M263.16,23.25a3.81,3.81,0,0,0,7.13,2.41Z"/><path class="b" d="M271.29,32.79a3.81,3.81,0,0,0,7.13,2.41Z"/><path class="b" d="M241.13,23.27a4,4,0,0,0,7.44,2.51Z"/><circle class="a" cx="72.82" cy="33.19" r="19.92" transform="translate(-6.46 22.29) rotate(-16.68)"/><circle class="a" cx="43.62" cy="38.62" r="23.11" transform="matrix(0.96, -0.29, 0.29, 0.96, -9.25, 14.14)"/><circle class="a" cx="16.55" cy="49" r="16.55" transform="translate(-13.37 6.81) rotate(-16.68)"/><path class="b" d="M61,24.43a4,4,0,0,0,7.52-2.25Z"/><path class="b" d="M70.73,17.83a4,4,0,0,0,7.52-2.25Z"/><path class="b" d="M28.8,26.39a4,4,0,0,0,7.52-2.25Z"/><path class="b" d="M24.17,35.31a4,4,0,0,0,7.52-2.25Z"/><path class="b" d="M8.4,41.79a4,4,0,0,0,7.52-2.25Z"/><circle class="a" cx="191.26" cy="19.35" r="15.86" transform="translate(144.15 205.72) rotate(-81.59)"/><circle class="a" cx="217.64" cy="25.79" r="13.35" transform="translate(160.3 237.32) rotate(-81.59)"/><circle class="a" cx="169.84" cy="13.35" r="13.35" transform="translate(131.8 179.4) rotate(-81.59)"/><path class="b" d="M216.62,16.19a3.38,3.38,0,0,0,6.6,1Z"/><path class="b" d="M197.3,16.08a3.38,3.38,0,0,0,6.6,1Z"/><path class="b" d="M190.8,8.31a3.38,3.38,0,0,0,6.6,1Z"/><path class="b" d="M179.08,13.56a3.38,3.38,0,0,0,6.6,1Z"/><path class="b" d="M168.06,9.43a3.38,3.38,0,0,0,6.67.23Z"/><circle class="a" cx="366.36" cy="106.62" r="18.18" transform="translate(11.93 247.91) rotate(-37.96)"/><circle class="a" cx="386.72" cy="120.62" r="25.61" transform="translate(7.62 263.4) rotate(-37.96)"/><circle class="a" cx="398.51" cy="147.19" r="18.57" transform="translate(-6.23 276.27) rotate(-37.96)"/><circle class="a" cx="413.53" cy="162.5" r="15.46" transform="matrix(0.79, -0.62, 0.62, 0.79, -12.47, 288.75)"/><path class="b" d="M380.26,100.63a3.81,3.81,0,0,0,4.63,5.93Z"/><path class="b" d="M393.91,106.14a3.81,3.81,0,0,0,4.63,5.93Z"/><path class="b" d="M406,135.1a3.81,3.81,0,0,0,4.63,5.93Z"/><path class="b" d="M421.22,154.38a3.81,3.81,0,0,0,4.63,5.93Z"/></svg>