<svg xmlns="http://www.w3.org/2000/svg" viewBox="0 0 279.3 288.56"><defs><style>.a{isolation:isolate;}.b{fill:#9fa7aa;}.c{fill:#e91e63;}.d,.n{fill:#16556f;}.e,.o{fill:#f3c46b;}.f,.r{fill:#3f494a;}.g,.t{fill:#75bbc8;}.h{fill:#fff;opacity:0.34;mix-blend-mode:overlay;}.i,.j,.k,.l,.m{fill:#f2f2f2;stroke-miterlimit:10;stroke-width:0.79px;}.i{stroke:#75bbc8;}.j{stroke:#16556f;}.k{stroke:#f3c46b;}.l{stroke:#e91e63;}.m{stroke:#3f494a;}.n,.o,.p,.r,.s,.t{font-size:24.04px;font-family:Montserrat-Thin, Montserrat;}.n,.o,.r,.s,.t{letter-spacing:0em;}.p,.s{fill:#ee5b42;}.p{letter-spacing:-0.01em;}.q{letter-spacing:0em;}</style></defs><title>how-it-works</title><g class="a"><circle class="b" cx="139.31" cy="146.99" r="17.18"/><path class="b" d="M155.49,161h-.32a20.78,20.78,0,0,1-31.72,0h-.32A14.17,14.17,0,0,0,109,175.17v20.88h10.45V184.43a1.54,1.54,0,1,1,3.07,0v11.63H156.1V184.43a1.54,1.54,0,1,1,3.07,0v11.63h10.45V175.17A14.17,14.17,0,0,0,155.49,161Z"/><path class="b" d="M148.72,87.57c-9.72,0-17.61,6.86-17.61,15.32S139,118.2,148.72,118.2a10.94,10.94,0,0,0,3.55-.31c6.26-2.2,1.53,10,1.53,10s7.41-7.53,10.68-15.3a25,25,0,0,0,1.84-9.72C166.33,94.43,158.45,87.57,148.72,87.57Zm-7.78,19.3a2.65,2.65,0,1,1,2.65-2.65A2.65,2.65,0,0,1,140.94,106.87Zm7.79,0a2.65,2.65,0,1,1,2.66-2.65A2.65,2.65,0,0,1,148.73,106.87Zm7.8,0a2.65,2.65,0,1,1,2.65-2.65A2.64,2.64,0,0,1,156.53,106.87Z"/><polygon class="c" points="42.44 88.16 42.81 87.95 15.06 71.93 14.7 72.14 14.7 216 42.44 199.98 42.44 88.16"/><polygon class="d" points="236.49 87.95 264.24 71.93 139.65 0 139.65 32.04 236.49 87.95"/><polygon class="c" points="236.86 200.4 139.65 256.52 139.65 288.56 264.6 216.42 264.6 216 236.86 199.98 236.86 200.4"/><polygon class="e" points="264.24 71.93 236.49 87.95 236.86 88.16 236.86 199.98 264.6 216 264.6 72.14 264.24 71.93"/><polygon class="f" points="42.44 200.4 42.44 199.98 14.7 216 14.7 216.42 139.65 288.56 139.65 256.52 42.44 200.4"/><polygon class="g" points="139.65 32.04 139.65 0 15.06 71.93 42.81 87.95 139.65 32.04"/><path class="h" d="M249.5,207.7V80.86l-.32-.18L139.65,17.44,30.12,80.68l-.32.18V207.7l109.85,63.42ZM42.44,200V88.16l.36-.21L139.65,32l96.84,55.91.36.21V200.4l-97.21,56.12L42.44,200.4Z"/><circle class="i" cx="84.42" cy="47.18" r="28.17"/><circle class="j" cx="193.88" cy="47.18" r="28.17"/><circle class="k" cx="250.73" cy="144.28" r="28.17"/><circle class="l" cx="193.88" cy="241.39" r="28.17"/><circle class="m" cx="84.42" cy="241.39" r="28.17"/><circle class="l" cx="28.57" cy="144.28" r="28.17"/><text class="n" transform="translate(181.82 54.3)">01</text><text class="o" transform="translate(236.12 151.41)">02</text><text class="p" transform="translate(179.47 248.52)">0<tspan class="q" x="15.53" y="0">3</tspan></text><text class="r" transform="translate(68.75 248.52)">04</text><text class="s" transform="translate(14.06 151.41)">05</text><text class="t" transform="translate(69.38 54.3)">06</text></g></svg>