<svg xmlns="http://www.w3.org/2000/svg" viewBox="0 0 62.18 39.52"><defs><style>.a{fill:#008a7e;}.b{fill:#00bfb2;}</style></defs><title>ib-community-states</title><path class="a" d="M62.18,19.89h0a.69.69,0,0,0-.41-.57L32.07.23a2.18,2.18,0,0,0-2,0L.41,17.38A.69.69,0,0,0,0,18H0a.69.69,0,0,0,.41.57L30.11,39.29a2.17,2.17,0,0,0,2,0l29.7-17.15a.68.68,0,0,0,.41-.57h0Z"/><path class="b" d="M32.07,35.66a2.16,2.16,0,0,1-2,0L.41,18.51a.6.6,0,0,1,0-1.13L30.11.23a2.18,2.18,0,0,1,2,0l29.7,17.15a.6.6,0,0,1,0,1.13Z"/></svg>