<svg xmlns="http://www.w3.org/2000/svg" viewBox="0 0 126.97 80.71"><defs><style>.a{fill:#dea100;}.b{fill:#ffc700;}</style></defs><title>ibcommunity-communities</title><path class="a" d="M127,40.61v0h0v0h0v-.1h0v-.71h0v-.61h0V39h0v-.48h0V38h0v-.17h0V37.4h0v-.3h0v-.13h0v-.26a1.39,1.39,0,0,0-.82-1.16L65.49.48a4.42,4.42,0,0,0-4,0L.83,35.5A1.4,1.4,0,0,0,0,36.66v.26H0v.13H0v.63H0V39H0v.72H0v.7H0v0H0v.06H0v0H0v.32H0v.25H0v0H0v.19H0v.17H0v.11H0v.43H0v0H0v.52H0V44a1.4,1.4,0,0,0,.83,1.16l60.66,35a4.4,4.4,0,0,0,4,0l60.66-35A1.39,1.39,0,0,0,127,44v-.13h0a.08.08,0,0,0,0,0v0a.08.08,0,0,0,0,0V42.77h0v-1a.09.09,0,0,0,0,0h0v-.15h0v0a.06.06,0,0,0,0,0,.08.08,0,0,0,0,0v-.11h0v-.23h0v-.43h0v-.12Z"/><path class="b" d="M65.49,72.83a4.42,4.42,0,0,1-4,0L.83,37.8a1.22,1.22,0,0,1,0-2.3L61.49.48a4.42,4.42,0,0,1,4,0l60.66,35a1.22,1.22,0,0,1,0,2.3Z"/></svg>