<svg xmlns="http://www.w3.org/2000/svg" xmlns:xlink="http://www.w3.org/1999/xlink" viewBox="0 0 57.97 71.77"><defs><style>.a{fill:url(#a);}.b{fill:url(#b);}.c{fill:#423a40;}.d{fill:#f7d9b5;}.e{fill:#efbc8b;}.f{fill:#efab84;}.g{fill:#332113;}.h{fill:#fff;stroke:#d6702b;stroke-miterlimit:10;stroke-width:1.38px;}.i{fill:url(#c);}.j{fill:url(#d);}.k{fill:url(#e);}.l{fill:url(#f);}.m{fill:url(#g);}.n{fill:#e87e7c;}</style><linearGradient id="a" x1="584.74" y1="30.38" x2="584.74" y2="59.28" gradientTransform="matrix(-1, 0, 0, 1, 622.75, 0)" gradientUnits="userSpaceOnUse"><stop offset="0.15" stop-color="#423a40"/><stop offset="1" stop-color="#665f72"/></linearGradient><linearGradient id="b" x1="19.26" y1="30.38" x2="19.26" y2="59.28" gradientTransform="matrix(1, 0, 0, 1, 0, 0)" xlink:href="#a"/><linearGradient id="c" x1="30.5" y1="7.31" x2="30.5" y2="17.11" gradientTransform="matrix(1, 0, 0, 1, 0, 0)" xlink:href="#a"/><linearGradient id="d" x1="18.34" y1="10.2" x2="18.34" y2="24.72" gradientTransform="matrix(1, 0, 0, 1, 0, 0)" xlink:href="#a"/><linearGradient id="e" x1="43.21" y1="11.84" x2="43.21" y2="26.56" gradientTransform="matrix(1, 0, 0, 1, 0, 0)" xlink:href="#a"/><linearGradient id="f" x1="22.97" y1="7.67" x2="22.97" y2="17.82" gradientTransform="matrix(1, 0, 0, 1, 0, 0)" xlink:href="#a"/><linearGradient id="g" x1="36.02" y1="6.44" x2="36.02" y2="15.28" gradientTransform="matrix(1, 0, 0, 1, 0, 0)" xlink:href="#a"/></defs><title>people10</title><path class="a" d="M47.5,55.87a26.69,26.69,0,0,1-1.9,8.07,9.72,9.72,0,0,1-5.91,5.49c-3.14.86-6.58-.54-8.82-2.9a18,18,0,0,1-4.12-8.71,35.44,35.44,0,0,1,3.53-24.32c2-3.58,15.87-20.12,18.94-13.5C51.1,24,49.24,33.3,49,37.76Q48.6,46.84,47.5,55.87Z"/><path class="b" d="M9.77,55.87a26.69,26.69,0,0,0,1.9,8.07,9.72,9.72,0,0,0,5.91,5.49c3.14.86,6.58-.54,8.82-2.9a18,18,0,0,0,4.12-8.71A35.44,35.44,0,0,0,27,33.48C25,29.9,11.12,13.36,8,20,6.17,24,8,33.3,8.24,37.76Q8.66,46.84,9.77,55.87Z"/><path class="c" d="M49.69,19.59a22,22,0,0,0-4-11.64C42,2.93,35.27,0,28.67,0S15.34,2.93,11.61,7.94a22,22,0,0,0-4,11.64,18,18,0,0,0,0,5.14c2,10.62,8.48,18.52,19.44,19.76a12.25,12.25,0,0,0,3.17,0c11-1.24,16.72-8.26,19.44-19.76A15.14,15.14,0,0,0,49.69,19.59Z"/><path class="d" d="M52.94,60.85a11.43,11.43,0,0,0-3.73-1.94L36.64,55h0a2.4,2.4,0,0,1-1.56-2,91.25,91.25,0,0,1-.39-10.66.16.16,0,0,0-.16-.16H23.44a.16.16,0,0,0-.16.16A94.87,94.87,0,0,1,22.89,53a2.38,2.38,0,0,1-1.56,2h0L8.73,58.92a11,11,0,0,0-3.25,1.6C.36,64.28.21,70.44,0,71.58a.16.16,0,0,0,.16.19H57.82a.16.16,0,0,0,.16-.19C57.77,70.47,57.69,64.64,52.94,60.85Z"/><path class="d" d="M52.94,60.85a11.43,11.43,0,0,0-3.73-1.94L36.64,55h0a2.4,2.4,0,0,1-1.56-2,91.25,91.25,0,0,1-.39-10.66.16.16,0,0,0-.16-.16H23.44a.16.16,0,0,0-.16.16A94.87,94.87,0,0,1,22.89,53a2.38,2.38,0,0,1-1.56,2h0L8.73,58.92a11,11,0,0,0-3.25,1.6C.36,64.28.21,70.44,0,71.58a.16.16,0,0,0,.16.19H57.82a.16.16,0,0,0,.16-.19C57.77,70.47,57.69,64.64,52.94,60.85Z"/><path class="e" d="M34.72,48.11c-.05-2.36,0-4.6,0-5.2a.16.16,0,0,0-.16-.16H23.44a.16.16,0,0,0-.16.16c0,.6,0,2.83,0,5.2A17.75,17.75,0,0,0,34.72,48.11Z"/><path class="d" d="M15.62,28c1,2.37.43,6.07-1.27,6.79s-3.89-1.83-4.88-4.2S9,25.68,10.73,25,14.62,25.59,15.62,28Z"/><path class="d" d="M42.36,28c-1,2.37-.43,6.07,1.27,6.79s3.89-1.83,4.88-4.2.43-4.87-1.27-5.59S43.36,25.59,42.36,28Z"/><path class="d" d="M29,4.55c-17-.67-17.26,15.56-17,20.9.18,3.87,1.71,9.5,2.53,12.3A9.58,9.58,0,0,0,17.06,42C21.5,46.24,29,47.68,29,47.68S36.48,46.24,40.92,42a9.58,9.58,0,0,0,2.55-4.25c.82-2.8,2.34-8.43,2.53-12.3C46.24,20.11,46,3.89,29,4.55Z"/><circle class="f" cx="17.64" cy="33.07" r="2.46"/><circle class="f" cx="39.41" cy="33.07" r="2.46"/><path class="g" d="M19.88,24.59a2.4,2.4,0,1,1,0,4.78c-1.4,0-2.54-1.69-2.54-3S18.48,24.59,19.88,24.59Z"/><path class="g" d="M38.09,24.59c1.4,0,2.54.45,2.54,1.77s-1.14,3-2.54,3a2.4,2.4,0,1,1,0-4.78Z"/><path class="h" d="M24.64,37.6a4.77,4.77,0,0,0,8.69,0Z"/><path class="i" d="M26.95,8.66l-.1,12a30.58,30.58,0,0,0,5.21-5.37c2.08-3,3.43-8.38,0-11.05C28.4,1.38,27,5.41,26.95,8.66Z"/><path class="j" d="M11.06,21c-.07,3.31.48,7.07,3.2,9a20.86,20.86,0,0,1,2.27-13.8c1.21-2.22,9.18-8.15,9.09-9.68-.28-4.68-8.32-.79-9.69.53C12.23,10.56,11.17,16,11.06,21Z"/><path class="k" d="M44,31.85a24.3,24.3,0,0,0,4.72-11.18A15.69,15.69,0,0,0,45.75,9.08c-2-2.53-6.1-5.42-7.86-1.06-1.43,3.53,2.88,7.37,4.16,10.47A27.28,27.28,0,0,1,44,31.85Z"/><path class="l" d="M19.29,10.9a13.31,13.31,0,0,0-1.13,10.58c.09-2.35,1.81-4.32,3.63-5.81S25.69,12.91,27,11s2.49-7.19-.46-7.49C24.12,3.23,20.31,9.12,19.29,10.9Z"/><path class="m" d="M32.34,9.21a41.73,41.73,0,0,0,1.75,4.47,9.13,9.13,0,0,1,.74,4.78,19.32,19.32,0,0,0,4.06-5C40.67,10,40.39,4.49,36.63,3,33.34,1.78,31.35,5.51,32.34,9.21Z"/><polygon class="n" points="45.31 57.36 42.94 56.62 42.94 64.52 28.99 68.47 15.04 64.52 15.04 56.62 12.66 57.36 10.87 71.77 28.84 71.77 29.13 71.77 47.11 71.77 45.31 57.36"/></svg>