<svg xmlns="http://www.w3.org/2000/svg" xmlns:xlink="http://www.w3.org/1999/xlink" viewBox="0 0 70.58 79.07"><defs><style>.a{fill:#f9dac5;}.b{fill:#86b3b5;}.c{fill:#f2bc9e;}.d{fill:#332113;}.e{fill:none;stroke:#d6925f;stroke-linecap:round;stroke-linejoin:round;stroke-width:1.38px;}.f{fill:url(#a);}.g{fill:url(#b);}.h{fill:#c68910;}.i{fill:#704905;}</style><linearGradient id="a" x1="36.04" y1="49" x2="36.04" y2="58.96" gradientUnits="userSpaceOnUse"><stop offset="0" stop-color="#6b2405"/><stop offset="1" stop-color="#904f22"/></linearGradient><linearGradient id="b" x1="36.04" y1="19.86" x2="36.04" y2="1.69" gradientUnits="userSpaceOnUse"><stop offset="0" stop-color="#3a1e0b"/><stop offset="0.71" stop-color="#904f22"/><stop offset="1" stop-color="#a7732e"/></linearGradient></defs><title>people3</title><path class="a" d="M64.71,67.77a14,14,0,0,0-4.34-2l-1.65-.44h0l-13-4.23A2.55,2.55,0,0,1,43.91,59c-.53-2.72-.47-9.25-.45-10.41a.17.17,0,0,0-.19-.16H29.11a.17.17,0,0,0-.19.16A78.42,78.42,0,0,1,28.47,59a2.53,2.53,0,0,1-1.82,2.1l-13,4.23h0L12,65.77a13.49,13.49,0,0,0-3.79,1.65c-6,3.9-6.13,10.27-6.37,11.46a.17.17,0,0,0,.18.19h68.4a.17.17,0,0,0,.18-.19C70.34,77.73,70.25,71.69,64.71,67.77Z"/><path class="b" d="M64.71,67.77a14,14,0,0,0-4.34-2l-1.65-.44h0L47,61.5l-10.83,14-10.83-14L13.63,65.31h0L12,65.77a13.49,13.49,0,0,0-3.79,1.65c-6,3.9-6.13,10.27-6.37,11.46a.17.17,0,0,0,.18.19h68.4a.17.17,0,0,0,.18-.19C70.34,77.73,70.25,71.69,64.71,67.77Z"/><path class="c" d="M43.63,56.52c-.06-3-.17-5.9-.17-6.67a.19.19,0,0,0-.19-.2H29.12a.19.19,0,0,0-.19.2c0,.77-.11,3.64-.18,6.69,1,1.05,4.76,2.55,7.28,2.57A16.56,16.56,0,0,0,43.63,56.52Z"/><path class="a" d="M22.83,34.56c1,2.69.43,6.89-1.27,7.7s-3.89-2.07-4.88-4.76-.43-5.52,1.27-6.34S21.83,31.87,22.83,34.56Z"/><path class="a" d="M49.57,34.56c-1,2.69-.43,6.89,1.27,7.7s3.89-2.07,4.88-4.76.43-5.52-1.27-6.34S50.57,31.87,49.57,34.56Z"/><path class="a" d="M36,10.73c-16.85-.56-17.1,15.58-16.85,20.9a64.9,64.9,0,0,0,1.92,12.3c.47,1.61,1.32,4.29,2.55,5.46C27,52.52,31,55.3,33.56,56.26a8.57,8.57,0,0,0,2.48.25,8.57,8.57,0,0,0,2.48-.25c2.52-1,6.61-3.74,9.9-6.88,1.22-1.17,2.08-3.85,2.55-5.46a64.9,64.9,0,0,0,1.92-12.3C53.14,26.31,52.89,10.17,36,10.73Z"/><ellipse class="d" cx="27.31" cy="32.99" rx="2.11" ry="2.61"/><ellipse class="d" cx="44.41" cy="32.99" rx="2.11" ry="2.61"/><path class="e" d="M32.67,46.14A4.16,4.16,0,0,0,36,47.55a4.16,4.16,0,0,0,3.38-1.4"/><path class="f" d="M50.31,49.2c.38-1.41.59-2.67.8-3.59A86.88,86.88,0,0,0,52.7,33.18a111.5,111.5,0,0,1-4.59,13.76,1,1,0,0,1-1.85.08,7.92,7.92,0,0,0-3.39-3.49,6.55,6.55,0,0,0-6.72.43c1.58,0,3.62.39,4.48,1.91,3,5.34-4.31,6.21-4.59,5.92-.28.28-7.62-.58-4.59-5.92.86-1.52,2.91-1.86,4.48-1.91a6.55,6.55,0,0,0-6.72-.43A7.92,7.92,0,0,0,25.82,47,1,1,0,0,1,24,46.94a111.51,111.51,0,0,1-4.59-13.76A86.89,86.89,0,0,0,21,45.61c.22,1,.47,2.43.93,4a1.3,1.3,0,0,0-.15.16l-.23.4a1.71,1.71,0,0,0-.12.89v.31A1.72,1.72,0,0,0,22,52.52a1.68,1.68,0,0,0,.45.25,2.72,2.72,0,0,0-.84,2.9,2.1,2.1,0,0,0,.48,1,2.85,2.85,0,0,0,1.86,1h.71a2.14,2.14,0,0,0-.07.87,2.83,2.83,0,0,0,3.06,2.57l.72-.16.26-.12c0,.09,0,.17,0,.26a2.83,2.83,0,0,0,2.83,2.83,2.92,2.92,0,0,0,2-.8l.31-.31a2.81,2.81,0,0,0,.37-.47,2.46,2.46,0,0,0,2.52,1.89A2.68,2.68,0,0,0,39,63l.12.13a2.83,2.83,0,0,0,4,0,3,3,0,0,0,.8-1.8,3,3,0,0,0,1,.16,2.58,2.58,0,0,0,2.65-2.8A2.82,2.82,0,0,0,50.46,56v-.31a3.08,3.08,0,0,0-.5-1.72A3,3,0,0,0,50.31,49.2Z"/><path class="g" d="M51.87,18a2.17,2.17,0,0,0-.3-.82,13.1,13.1,0,0,0-2.42-2.85,6.11,6.11,0,0,0-.89-2.88A23.5,23.5,0,0,0,38.17,2c0,2.3-1.83,4.21-3.81,5.37s-4.23,1.82-6.16,3.07a10.58,10.58,0,0,0-2.09,1.77,14.2,14.2,0,0,0-5.61,5,2.17,2.17,0,0,0-.3.82c-1.9,3.63-1.6,7.85-1.65,10.89a57.06,57.06,0,0,0,1.51,9.37c.5-2.73.33-9.16,1-11.91A33.25,33.25,0,0,1,23,20.49c4.19-4.39,21.63-4.19,26.16,0a33.25,33.25,0,0,1,1.94,5.9c.63,2.76.45,9.18,1,11.91a57.06,57.06,0,0,0,1.51-9.37C53.47,25.89,53.77,21.68,51.87,18Z"/><path class="h" d="M51.84,26.5c-3.83-.9-3.82-1.82-8.26-3a36.64,36.64,0,0,0-10.43-1.3,35.68,35.68,0,0,0-10.43,1.74c-3.89,1.3-4.06,2.16-6.09,2.61C8.85,28.21-1.15,18.3.11,15.63,1.27,13.16,11,19,18.37,13.89c4.3-3,2.87-6.37,7.39-10,5.83-4.68,16-5.35,20.87-.87,3.57,3.25,1.71,6.49,5.22,9.56,6.1,5.36,16.25-.48,18.26,3,1.47,2.57-2.34,8.54-7.39,10.87C58.91,28.25,54.91,27.22,51.84,26.5Z"/><path class="i" d="M20.56,12c-.45-.84,6.14-2.17,9.3-2.67a43.64,43.64,0,0,1,12.4-.44c3.27.4,8.58,1.5,8.27,2.37C49.82,13.19,21.44,13.66,20.56,12Z"/></svg>