<svg xmlns="http://www.w3.org/2000/svg" xmlns:xlink="http://www.w3.org/1999/xlink" viewBox="0 0 57.97 73.39"><defs><style>.a{fill:url(#a);}.b{fill:#d8aa8b;}.c{fill:#c68458;}.d{fill:#332113;}.e{fill:#fff;stroke:#bc2424;stroke-miterlimit:10;stroke-width:1.71px;}.f{fill:#d6725f;}.g{fill:#50b4ff;}.h{fill:url(#b);}.i{fill:url(#c);}.j{fill:url(#d);}.k{fill:url(#e);}</style><linearGradient id="a" x1="39.69" y1="38.53" x2="18.91" y2="2.55" gradientUnits="userSpaceOnUse"><stop offset="0.11" stop-color="#4d292b"/><stop offset="0.95" stop-color="#3b1e1c"/></linearGradient><linearGradient id="b" x1="14.04" y1="27.65" x2="10.17" y2="20.94" xlink:href="#a"/><linearGradient id="c" x1="355.65" y1="27.3" x2="359.11" y2="21.32" gradientTransform="matrix(-1, 0, 0, 1, 403.24, 0)" xlink:href="#a"/><linearGradient id="d" x1="21.63" y1="66.77" x2="11.03" y2="48.42" xlink:href="#a"/><linearGradient id="e" x1="38.06" y1="38.8" x2="18.7" y2="5.27" xlink:href="#a"/></defs><title>people13</title><circle class="a" cx="29.3" cy="20.55" r="20.55"/><path class="b" d="M52.94,62.47a11.43,11.43,0,0,0-3.73-1.94L36.64,56.61h0a2.4,2.4,0,0,1-1.56-2,91.25,91.25,0,0,1-.39-10.66.16.16,0,0,0-.16-.16H23.44a.16.16,0,0,0-.16.16,94.87,94.87,0,0,1-.39,10.66,2.38,2.38,0,0,1-1.56,2h0L8.73,60.54a11,11,0,0,0-3.25,1.6C.36,65.9.21,72.06,0,73.2a.16.16,0,0,0,.16.19H57.82A.16.16,0,0,0,58,73.2C57.77,72.09,57.69,66.26,52.94,62.47Z"/><path class="c" d="M52.94,62.47a11.43,11.43,0,0,0-3.73-1.94L36.64,56.61h0a2.4,2.4,0,0,1-1.56-2,91.25,91.25,0,0,1-.39-10.66.16.16,0,0,0-.16-.16H23.44a.16.16,0,0,0-.16.16,94.87,94.87,0,0,1-.39,10.66,2.38,2.38,0,0,1-1.56,2h0L8.73,60.54a11,11,0,0,0-3.25,1.6C.36,65.9.21,72.06,0,73.2a.16.16,0,0,0,.16.19H57.82A.16.16,0,0,0,58,73.2C57.77,72.09,57.69,66.26,52.94,62.47Z"/><path class="c" d="M34.72,49.73c-.05-2.36,0-4.6,0-5.2a.16.16,0,0,0-.16-.16H23.44a.16.16,0,0,0-.16.16c0,.6,0,2.83,0,5.2A17.75,17.75,0,0,0,34.72,49.73Z"/><path class="c" d="M15.62,29.58c1,2.37.43,6.07-1.27,6.79s-3.89-1.83-4.88-4.2S9,27.3,10.73,26.58,14.62,27.21,15.62,29.58Z"/><path class="c" d="M42.36,29.58c-1,2.37-.43,6.07,1.27,6.79s3.89-1.83,4.88-4.2.43-4.87-1.27-5.59S43.36,27.21,42.36,29.58Z"/><path class="c" d="M29,6.17c-17-.67-17.26,15.56-17,20.9.18,3.87,1.71,9.5,2.53,12.3a9.58,9.58,0,0,0,2.55,4.25C21.5,47.86,29,49.3,29,49.3s7.49-1.44,11.93-5.68a9.58,9.58,0,0,0,2.55-4.25c.82-2.8,2.34-8.43,2.53-12.3C46.24,21.73,46,5.51,29,6.17Z"/><ellipse class="d" cx="20.1" cy="28.43" rx="2.21" ry="2.61"/><ellipse class="d" cx="37.2" cy="28.43" rx="2.21" ry="2.61"/><path class="e" d="M22.93,39.13a6.64,6.64,0,0,0,12.11,0Z"/><circle class="f" cx="17.64" cy="34.69" r="2.46"/><circle class="f" cx="39.41" cy="34.69" r="2.46"/><path class="g" d="M.75,69.15a26.2,26.2,0,0,0-.75,4,.16.16,0,0,0,.16.19H57.82A.16.16,0,0,0,58,73.2c-.21-1.11-.28-6.95-5-10.73a11.44,11.44,0,0,0-3.73-1.94l-.53-.16A64.26,64.26,0,0,1,29.83,68.1C21.62,70,11.46,70.31.75,69.15Z"/><path class="h" d="M13,33.17q.1-5.61.21-11.22c0-1.77.47-5.3-2.52-4.4-2.45.74-1.28,4.77-1,6.62a27.84,27.84,0,0,0,1.24,4.64C11.34,29.92,13,32.11,13,33.17Z"/><path class="i" d="M45,33.17q-.1-5.61-.21-11.22c0-1.77-.47-5.3,2.52-4.4,2.45.74,1.28,4.77,1,6.62A27.83,27.83,0,0,1,47,28.82C46.63,29.92,45,32.11,45,33.17Z"/><path class="j" d="M16.74,47.49c-2.11,2.85-5.64,4.12-8.09,6.63a11.62,11.62,0,0,0,.41,16.64c-.67-2.17,1-4.44,3-5.47s4.36-1.26,6.49-2a13.5,13.5,0,0,0,7.83-7.57c.49-1.21.6-4.07.23-7a26.4,26.4,0,0,1-8.59-4.21A12.85,12.85,0,0,1,16.74,47.49Z"/><path class="k" d="M47.35,17c-.65-2.76-3.71-8-6.92-7.61A9.4,9.4,0,0,0,36.84,4.4a12.67,12.67,0,0,0-8.91-1.78C23,3.29,17,5.09,13.76,9.16s-6.3,9.9-6.14,15.26a18.84,18.84,0,0,1,2.53-2.94,24.85,24.85,0,0,0,3.48,13.85A27.67,27.67,0,0,1,14.77,26a16,16,0,0,0,.66,4.36c-.14-.46,3.13-4.46,4-5.65,0,.22,0,.44,0,.65,0-.5,5.28-3.63,6-4.21a39.26,39.26,0,0,0,4.09-4.08c-.45.8-.86,1.61-1.23,2.43s-1.58,5.77-2.08,6a21.62,21.62,0,0,0,9.37-7.64,7.39,7.39,0,0,0,1.08-2.35l.56,0c.06.18.13.36.2.54a21.74,21.74,0,0,0,2.37,3.71,25.12,25.12,0,0,1,4.4,15.64A23.28,23.28,0,0,0,47.35,17Z"/></svg>