<svg xmlns="http://www.w3.org/2000/svg" xmlns:xlink="http://www.w3.org/1999/xlink" viewBox="0 0 68.77 72.59"><defs><style>.a{fill:#c68458;}.b{fill:#dd4ed6;}.c{fill:#a56a42;}.d{fill:#332113;}.e{fill:#fff;}.f{fill:#3a1e0b;}.g{fill:url(#a);}</style><linearGradient id="a" x1="34.39" y1="15.46" x2="34.39" y2="-0.26" gradientUnits="userSpaceOnUse"><stop offset="0" stop-color="#3a1e0b"/><stop offset="0.71" stop-color="#904f22"/><stop offset="1" stop-color="#a7732e"/></linearGradient></defs><title>people6</title><path class="a" d="M62.91,61.28a14,14,0,0,0-4.34-2l-1.65-.44h0l-13-4.23a2.55,2.55,0,0,1-1.82-2.1c-.53-2.72-.47-9.25-.45-10.41a.17.17,0,0,0-.19-.16H27.3a.17.17,0,0,0-.19.16,78.41,78.41,0,0,1-.45,10.41,2.53,2.53,0,0,1-1.82,2.1l-13,4.23h0l-1.69.45a13.49,13.49,0,0,0-3.79,1.65C.42,64.83.25,71.21,0,72.39a.17.17,0,0,0,.18.19h68.4a.17.17,0,0,0,.18-.19C68.53,71.24,68.44,65.2,62.91,61.28Z"/><path class="b" d="M62.91,61.28a14,14,0,0,0-4.34-2l-1.65-.44h0l-11.2-3.64a32.22,32.22,0,0,1-22.72,0l-11.2,3.64h0l-1.69.45a13.49,13.49,0,0,0-3.79,1.65C.42,64.83.25,71.21,0,72.39a.17.17,0,0,0,.18.19h68.4a.17.17,0,0,0,.18-.19C68.53,71.24,68.44,65.2,62.91,61.28Z"/><path class="c" d="M41.82,50c-.06-3-.17-5.9-.17-6.67a.19.19,0,0,0-.19-.2H27.3a.19.19,0,0,0-.19.2c0,.77-.11,3.64-.18,6.69,1,1.05,4.76,2.55,7.28,2.57A16.56,16.56,0,0,0,41.82,50Z"/><path class="a" d="M21,28.07c1,2.69.43,6.89-1.27,7.7S15.86,33.7,14.86,31s-.43-5.52,1.27-6.34S20,25.39,21,28.07Z"/><path class="a" d="M47.76,28.07c-1,2.69-.43,6.89,1.27,7.7S52.91,33.7,53.91,31s.43-5.52-1.27-6.34S48.75,25.39,47.76,28.07Z"/><path class="a" d="M34.23,4.24c-16.85-.56-17.1,15.58-16.85,20.9a64.9,64.9,0,0,0,1.92,12.3c.47,1.61,1.32,4.29,2.55,5.46,3.29,3.14,7.37,5.92,9.9,6.88a8.57,8.57,0,0,0,2.48.25,8.57,8.57,0,0,0,2.48-.25c2.52-1,6.61-3.74,9.9-6.88,1.22-1.17,2.08-3.85,2.55-5.46a64.9,64.9,0,0,0,1.92-12.3C51.33,19.82,51.08,3.68,34.23,4.24Z"/><ellipse class="d" cx="25.5" cy="25.99" rx="2.11" ry="2"/><ellipse class="d" cx="42.6" cy="25.99" rx="2.11" ry="2"/><path class="e" d="M29,38a5.92,5.92,0,0,0,5.38,3.91A5.92,5.92,0,0,0,39.77,38Z"/><path class="f" d="M19.37,20.11a33,33,0,0,1,3.49-9,2.14,2.14,0,0,0-2.31-.7C18,14.3,17.4,19.22,17.34,22.65a21.64,21.64,0,0,0,1.08,5.75C18.92,25.68,18.74,22.86,19.37,20.11Z"/><path class="f" d="M49.4,20.11a33,33,0,0,0-3.49-9,2.14,2.14,0,0,1,2.31-.7c2.57,3.9,3.15,8.82,3.21,12.25a21.64,21.64,0,0,1-1.08,5.75C49.85,25.68,50,22.86,49.4,20.11Z"/><path class="g" d="M32.7.47a20,20,0,0,0-8.25,4.84,14.2,14.2,0,0,0-5.61,5,2.17,2.17,0,0,0-.3.82C16.66,14.79,17,19,16.91,22.05a57.06,57.06,0,0,0,1.51,9.37c.5-2.73.33-9.16,1-11.91a33.25,33.25,0,0,1,1.94-5.9c4.19-4.39,21.63-4.19,26.16,0a33.25,33.25,0,0,1,1.94,5.9c.63,2.76.45,9.18,1,11.91a57.06,57.06,0,0,0,1.51-9.37c-.05-3,.25-7.26-1.65-10.89a2.17,2.17,0,0,0-.3-.82A13.1,13.1,0,0,0,47.5,7.49a7.33,7.33,0,0,0-.89-2.88C44.19.3,37.34-.74,32.7.47Z"/></svg>