<svg xmlns="http://www.w3.org/2000/svg" xmlns:xlink="http://www.w3.org/1999/xlink" viewBox="0 0 68.77 82.76"><defs><style>.a{fill:url(#a);}.b{fill:#c4997c;}.c{fill:#c1977a;}.d{fill:#332113;}.e{fill:#4cbcb6;}.f{fill:#fff;}.g{fill:#d68572;}</style><radialGradient id="a" cx="250.43" cy="217.27" r="31.73" gradientTransform="translate(288.67 244.35) rotate(179)" gradientUnits="userSpaceOnUse"><stop offset="0" stop-color="#926837"/><stop offset="0.87" stop-color="#fcda12"/></radialGradient></defs><title>people4</title><path class="a" d="M2.46,22.58a3.51,3.51,0,0,0,1.83,2l.23.1c0,.06,0,.12-.07.19a3.64,3.64,0,0,0-.35,1.8V27a4.79,4.79,0,0,0,.71,2.41l.75.92a3.76,3.76,0,0,0-.35.37,3.51,3.51,0,0,0-.88,1.56A3.52,3.52,0,0,0,4,34v.35a4.64,4.64,0,0,0,.74,2.32l.81,1a4.8,4.8,0,0,0,.59.44l-.37.27A3.86,3.86,0,0,0,4.67,41,2.84,2.84,0,0,0,5,42.43a2.89,2.89,0,0,0,.79,1.3A2.88,2.88,0,0,0,7,44.54a2.89,2.89,0,0,0,1.41.35h.45a5.37,5.37,0,0,0-.57,3c.36,2.78,2.64,4.31,5.21,4.48,0,.15,0,.29,0,.45a5.69,5.69,0,0,0,5.44,5.82,6.31,6.31,0,0,0,2.3-.48,5,5,0,0,0,5,3.26,3.72,3.72,0,0,0,1.9-.58l0,.06.6.83A4,4,0,0,0,31.46,63,3,3,0,0,0,33,62.67a3,3,0,0,0,1.33-.79,3,3,0,0,0,.65-.8,3,3,0,0,0,.67.78A3,3,0,0,0,37,62.6a3,3,0,0,0,1.57.23,4,4,0,0,0,2.67-1.34l.57-.85,0-.06a3.72,3.72,0,0,0,1.92.51,5,5,0,0,0,4.91-3.43,6.31,6.31,0,0,0,2.32.4,5.69,5.69,0,0,0,5.24-6c0-.15,0-.3-.06-.44,2.56-.26,4.79-1.87,5.05-4.66a5.37,5.37,0,0,0-.67-3H61a3.68,3.68,0,0,0,3.34-2.57,2.84,2.84,0,0,0,.24-1.47,3.86,3.86,0,0,0-1.25-2.6L63,37.07a4.8,4.8,0,0,0,.57-.46l.78-1A4.64,4.64,0,0,0,65,33.27v-.35a3.52,3.52,0,0,0-.36-1.74,3.51,3.51,0,0,0-.94-1.53,3.76,3.76,0,0,0-.37-.35l.72-.94a4.79,4.79,0,0,0,.63-2.44v-.35a3.64,3.64,0,0,0-.41-1.79c0-.06,0-.12-.07-.18l.23-.11a3.51,3.51,0,0,0,1.76-2A3.56,3.56,0,0,0,66,18.86l-.36-.69a3.62,3.62,0,0,0-2-1.76,2.62,2.62,0,0,0-1.1-.15,2.41,2.41,0,0,0-.3-.72,2.39,2.39,0,0,0-.76-1,3.59,3.59,0,0,0-2.3-.75l-.28,0a3.9,3.9,0,0,0,.55-2v-.35A3,3,0,0,0,59,9.94a2.92,2.92,0,0,0-.86-1.27,3,3,0,0,0-1.28-.77,3,3,0,0,0-1.48-.29l-1,.16-.3.11a3.38,3.38,0,0,0-.23-1A3.42,3.42,0,0,0,53,5.34a3.37,3.37,0,0,0-1.38-1.1,3.43,3.43,0,0,0-1.71-.57l-1.17,0a4.62,4.62,0,0,0-1,.28,3,3,0,0,0-.49-.73,3,3,0,0,0-1.21-.92,3,3,0,0,0-1.5-.47l-1.07.06a4,4,0,0,0-1.34.53A5.26,5.26,0,0,0,37.46,0,5.15,5.15,0,0,0,34,1.31,5.15,5.15,0,0,0,30.4.12a5.26,5.26,0,0,0-4.64,2.62,4,4,0,0,0-1.36-.48l-1.07,0a3,3,0,0,0-1.49.52,3,3,0,0,0-1.18,1,3,3,0,0,0-.47.75,4.62,4.62,0,0,0-1-.25H18.07a3.43,3.43,0,0,0-1.69.62A3.37,3.37,0,0,0,15,6a3.42,3.42,0,0,0-.72,1.57,3.38,3.38,0,0,0-.19,1l-.3-.1-1-.13a3,3,0,0,0-1.47.34A3,3,0,0,0,10,9.51a2.92,2.92,0,0,0-.82,1.3,3,3,0,0,0-.33,1.53v.35a3.9,3.9,0,0,0,.62,2l-.28,0A2.42,2.42,0,0,0,8,14.89,2.43,2.43,0,0,0,7,15.5a2.39,2.39,0,0,0-.72,1,2.41,2.41,0,0,0-.28.73,2.62,2.62,0,0,0-1.09.19,3.62,3.62,0,0,0-2,1.83l-.33.7A3.56,3.56,0,0,0,2.46,22.58Z"/><path class="b" d="M62.91,71.46a14,14,0,0,0-4.34-2L56.91,69h0l-13-4.23a2.55,2.55,0,0,1-1.82-2.1c-.53-2.72-.47-9.25-.45-10.41a.17.17,0,0,0-.19-.16H27.3a.17.17,0,0,0-.19.16,78.41,78.41,0,0,1-.45,10.41,2.53,2.53,0,0,1-1.82,2.1L11.82,69h0l-1.69.45a13.49,13.49,0,0,0-3.79,1.65C.42,75,.25,81.38,0,82.57a.17.17,0,0,0,.18.19h68.4a.17.17,0,0,0,.18-.19C68.53,81.42,68.44,75.38,62.91,71.46Z"/><path class="c" d="M41.83,60.21c-.06-3-.17-5.9-.17-6.67a.19.19,0,0,0-.19-.2H27.31a.19.19,0,0,0-.19.2c0,.77-.11,3.64-.18,6.69,1,1.05,4.76,2.55,7.28,2.57A16.56,16.56,0,0,0,41.83,60.21Z"/><path class="b" d="M21,38.25c1,2.69.43,6.89-1.27,7.7s-3.89-2.07-4.88-4.76-.43-5.52,1.27-6.34S20,35.56,21,38.25Z"/><path class="b" d="M47.76,38.25c-1,2.69-.43,6.89,1.27,7.7s3.89-2.07,4.88-4.76.43-5.52-1.27-6.34S48.76,35.56,47.76,38.25Z"/><path class="b" d="M34.23,14.42C17.38,13.86,17.13,30,17.39,35.32a64.9,64.9,0,0,0,1.92,12.3c.47,1.61,1.32,4.29,2.55,5.46,3.29,3.14,7.37,5.92,9.9,6.88a8.57,8.57,0,0,0,2.48.25A8.57,8.57,0,0,0,36.71,60c2.52-1,6.61-3.74,9.9-6.88,1.22-1.17,2.08-3.85,2.55-5.46a64.9,64.9,0,0,0,1.92-12.3C51.33,30,51.09,13.86,34.23,14.42Z"/><ellipse class="d" cx="25.51" cy="36.68" rx="2.11" ry="2.39"/><ellipse class="d" cx="42.6" cy="36.68" rx="2.11" ry="2.39"/><path class="e" d="M56.91,69h0l-11.2-3.64c-2.25,2.66-7.34,6.42-11.36,6.42S25.5,68.4,23,65.36L11.82,69h0l-.79.21V82.76H57.7V69.22Z"/><path class="f" d="M28.85,48.3a5.91,5.91,0,0,0,10.77,0Z"/><circle class="g" cx="23.37" cy="42.77" r="2.46"/><circle class="g" cx="45.15" cy="42.77" r="2.46"/></svg>