<svg xmlns="http://www.w3.org/2000/svg" viewBox="0 0 95.53 32.9"><defs><style>.a{opacity:0.35;}.b{fill:#e8e3cc;}</style></defs><title>sky1</title><g class="a"><path class="b" d="M24.28,6.6h5.92a3.29,3.29,0,0,1-.46,6.56H59.12a3.29,3.29,0,0,1-.46-6.56h10a3.3,3.3,0,0,0,0-6.6H24.28a3.3,3.3,0,0,0,0,6.6Z"/><path class="b" d="M70,26.3H53.46a3.29,3.29,0,0,1,1-6.42H32.77a3.29,3.29,0,0,1,1,6.42H13.13a3.3,3.3,0,0,0,0,6.6H70a3.3,3.3,0,0,0,0-6.6Z"/><path class="b" d="M92.23,13.17H3.3a3.3,3.3,0,0,0,0,6.6H92.23a3.3,3.3,0,1,0,0-6.6Z"/></g></svg>