<svg xmlns="http://www.w3.org/2000/svg" viewBox="0 0 93.69 32.27"><defs><style>.a{opacity:0.35;}.b{fill:#e8e3cc;}</style></defs><title>sky3</title><g class="a"><path class="b" d="M23.81,6.47h5.81a3.23,3.23,0,0,1-.45,6.43H58a3.23,3.23,0,0,1-.45-6.43h9.84a3.24,3.24,0,1,0,0-6.47H23.81a3.24,3.24,0,0,0,0,6.47Z"/><path class="b" d="M68.63,25.79H52.42a3.23,3.23,0,0,1,1-6.29H32.14a3.23,3.23,0,0,1,1,6.29H12.88a3.24,3.24,0,1,0,0,6.47H68.63a3.24,3.24,0,0,0,0-6.47Z"/><path class="b" d="M90.45,12.92H3.24a3.24,3.24,0,0,0,0,6.47H90.45a3.24,3.24,0,0,0,0-6.47Z"/></g></svg>