<svg xmlns="http://www.w3.org/2000/svg" viewBox="0 0 89.15 80.23"><defs><style>.a{fill:#787563;}.b{fill:#d7d2bb;}.c{fill:#fff;opacity:0.32;}</style></defs><title>solar-panel</title><path class="a" d="M36.21,25.36H53.64a0,0,0,0,1,0,0V77.72a2.36,2.36,0,0,1-2.36,2.36H38.57a2.36,2.36,0,0,1-2.36-2.36V25.36a0,0,0,0,1,0,0Z" transform="translate(-1.25 1.09) rotate(-1.38)"/><path class="a" d="M70.44,0,16.91,1.29a11.55,11.55,0,0,0-11,9.11L.26,36.49a11.55,11.55,0,0,0,11.57,14l66-1.59A11.55,11.55,0,0,0,88.75,34.36L81.88,8.58A11.55,11.55,0,0,0,70.44,0Z"/><path class="b" d="M82.48,41a6.1,6.1,0,0,1-4.75,2.44L11.71,45a6.1,6.1,0,0,1-6.12-7.4L6,35.85l.85-4L9.59,19.07l.85-4,.76-3.57A6.09,6.09,0,0,1,17,6.73L70.57,5.44A6.09,6.09,0,0,1,76.62,10l.93,3.53,1,3.9L82,30.09,83,34l.47,1.77A6.06,6.06,0,0,1,82.48,41Z"/><path class="c" d="M10.45,15.12l-.85,4,15.63-.38L24.17,31.48l-17.35.42-.85,4,17.89-.43h0l-.78,9.35,5.08-.12.77-9.35,30.29-.73h0l1.23,9.3,5.07-.12-1.21-9.3h0L83,34l-1-3.9-18.2.44L62.12,17.81l16.47-.4-1-3.9-16,.38-1.07-8.2-5.08.12L56.53,14l-25.91.62.67-8.25-5.07.12-.68,8.25ZM57,17.93l1.67,12.72-29.45.71,1-12.78Z"/></svg>