<svg xmlns="http://www.w3.org/2000/svg" viewBox="0 0 68.89 100.88"><defs><style>.a{fill:#b79030;}.b{fill:#95cf50;}.c{fill:#79aa33;}</style></defs><title>tree2</title><rect class="a" x="15.16" y="51.6" width="14.78" height="48.18" transform="translate(21.99 -3.28) rotate(16.19)"/><ellipse class="b" cx="34.45" cy="34.68" rx="34.7" ry="34.42" transform="translate(-8.46 58.1) rotate(-73.81)"/><path class="c" d="M47.89,47.78a4.84,4.84,0,0,0,9.23,2.68Z"/><path class="c" d="M10.51,21.26A5,5,0,0,0,20,24Z"/><path class="c" d="M27.6,11.59a4.73,4.73,0,0,0,9,2.62Z"/><path class="c" d="M30.43,32.43a4.73,4.73,0,0,0,9,2.62Z"/><path class="c" d="M46.28,18.84a4.73,4.73,0,0,0,9,2.62Z"/><path class="c" d="M52,32.26a4.73,4.73,0,0,0,9,2.62Z"/><path class="c" d="M12.73,41.84a4.73,4.73,0,0,0,9,2.62Z"/><path class="c" d="M26.83,53.29a4.73,4.73,0,0,0,9,2.62Z"/></svg>